<svg width="124" height="138" fill="none" xmlns="http://www.w3.org/2000/svg"><path d="M47.393 12.107L22.45 25.559C10.04 32.25 12.04 59.99 26.903 87.553c14.865 27.563 36.944 44.474 49.353 37.781l24.944-13.451" fill="#202533"/><path d="M47.393 12.107L22.45 25.559C10.04 32.25 12.04 59.99 26.903 87.553c14.865 27.563 36.944 44.474 49.353 37.781l24.944-13.451" stroke="#F5F7FA" stroke-width="2" stroke-linecap="round" stroke-linejoin="round"/><path d="M51.848 74.101c14.859 27.553 36.955 44.468 49.353 37.781 12.399-6.686 10.405-34.442-4.454-61.994C81.89 22.336 59.792 5.421 47.394 12.107 34.996 18.793 36.99 46.549 51.848 74.1z" fill="#202533" stroke="#F5F7FA" stroke-width="2" stroke-linecap="round" stroke-linejoin="round"/><path d="M42.958 53.138L18.014 66.59M64.48 93.048l-24.746 13.346" stroke="#F5F7FA" stroke-width="2" stroke-linecap="round" stroke-linejoin="round"/><path d="M92.272 87.395l-3.71-5.634c-1.262 2.359-2.66 4.287-4.196 5.783-1.54 1.426-3.195 2.262-4.967 2.507l-.996-4.002a10.137 10.137 0 004.763-2.336c1.368-1.24 2.715-3.183 4.041-5.827 1.635-3.26 2.46-6.314 2.475-9.162-.007-2.882-.668-5.321-1.983-7.318-1.07-1.624-2.216-2.313-3.44-2.065-1.205.212-2.678 1.388-4.42 3.53l-3.338 4.308c-2.058 2.617-3.977 3.978-5.757 4.083-1.784.034-3.511-1.217-5.183-3.755-1.248-1.895-2.117-4.077-2.607-6.543-.49-2.467-.59-5.01-.297-7.628a26.188 26.188 0 012.07-7.768l-3.71-5.634L62.486 37l3.745 5.685c.997-1.675 2.193-3.082 3.587-4.218 1.413-1.173 2.912-1.736 4.498-1.688l1.017 3.842c-1.703.03-3.211.61-4.524 1.742-1.336 1.098-2.549 2.734-3.639 4.907-1.453 2.898-2.179 5.91-2.177 9.04.02 3.091.753 5.737 2.202 7.937 1.136 1.726 2.332 2.552 3.586 2.478 1.231-.108 2.612-1.138 4.14-3.091l3.345-4.204c2.226-2.873 4.234-4.45 6.024-4.73 1.767-.316 3.442.728 5.024 3.13 1.828 2.776 2.772 6.06 2.832 9.853.061 3.792-.655 7.49-2.148 11.093l3.744 5.685-1.47 2.934z" fill="#F5F7FA"/></svg>