<svg width="502" height="213" viewBox="0 0 502 213" fill="none" xmlns="http://www.w3.org/2000/svg">
<path d="M499.429 61.0516C501.924 73.9189 497.542 87.5189 487.245 101.151C476.948 114.783 460.798 128.356 439.973 141.096C398.331 166.572 338.181 188.601 269.396 201.103C200.612 213.605 136.306 214.195 87.957 205.076C63.779 200.515 43.6452 193.537 28.9434 184.448C14.2421 175.36 5.06489 164.224 2.57055 151.357C0.0762047 138.49 4.45837 124.889 14.7553 111.258C25.0525 97.6252 41.2023 84.052 62.0267 71.3123C103.669 45.8366 163.819 23.807 232.604 11.3053C301.388 -1.19638 365.694 -1.78684 414.043 7.3326C438.221 11.893 458.355 18.8715 473.057 27.9603C487.758 37.0488 496.935 48.1844 499.429 61.0516Z" stroke="url(#paint0_linear_9_2)" stroke-width="2"/>
<defs>
<linearGradient id="paint0_linear_9_2" x1="1.58664" y1="151.535" x2="499.286" y2="55.0554" gradientUnits="userSpaceOnUse">
<stop stop-color="#22BAFB"/>
<stop offset="0.234375" stop-color="#64EEB4"/>
<stop offset="0.546875" stop-color="#FFF5DD"/>
<stop offset="0.653646" stop-color="#C8F3F9"/>
<stop offset="1" stop-color="#184CD1"/>
</linearGradient>
</defs>
</svg>
