<?xml version="1.0" encoding="utf-8"?><svg viewBox="0 0 1427 1202" xmlns="http://www.w3.org/2000/svg" xmlns:xlink="http://www.w3.org/1999/xlink"><style>:root>svg{display:none}:root>svg:target{display:block}</style><svg fill="none" viewBox="0 0 331 146" id="catalog--btn" xmlns="http://www.w3.org/2000/svg"><path d="M329.535 42.543c1.627 8.664-1.224 17.849-7.986 27.094-6.763 9.247-17.385 18.472-31.108 27.142-27.44 17.337-67.097 32.34-112.464 40.856-45.368 8.516-87.766 8.915-119.625 2.709-15.933-3.104-29.177-7.849-38.833-14.014-9.655-6.164-15.642-13.69-17.268-22.354-1.626-8.664 1.224-17.849 7.986-27.094C17 67.635 27.622 58.41 41.345 49.74c27.44-17.337 67.097-32.34 112.464-40.856C199.177.368 241.575-.031 273.434 6.175c15.933 3.104 29.177 7.85 38.834 14.014 9.654 6.164 15.641 13.69 17.267 22.354z" fill="#192239" stroke="url(#aapaint0_linear_1529_5346)" stroke-width="2"/><defs><linearGradient id="aapaint0_linear_1529_5346" x1="1.268" y1="104.16" x2="330.518" y2="42.358" gradientUnits="userSpaceOnUse"><stop stop-color="#22BAFB"/><stop offset=".234" stop-color="#64EEB4"/><stop offset=".547" stop-color="#FFF5DD"/><stop offset=".654" stop-color="#C8F3F9"/><stop offset="1" stop-color="#184CD1"/></linearGradient></defs></svg><svg fill="none" viewBox="0 0 219 55" id="footer--footer-logo" xmlns="http://www.w3.org/2000/svg"><path d="M48 48.28s30.428-8.99 58.516-3.509C130.758 49.501 171 43.214 171 43.214s-38.918 17.064-64.753 10.127C79.343 46.117 48 48.28 48 48.28zm-34.015-8.865c-7.553 0-11.329-2.435-11.329-7.304V19.33c0-5.146 3.776-7.719 11.33-7.719 2.572 0 5.034.263 7.386.789v2.988c-2.656-.664-5.09-.996-7.304-.996-1.079 0-2.02.069-2.822.207a9.612 9.612 0 00-2.324.623c-1.604.691-2.407 2.047-2.407 4.067v12.616c0 3.098 2.573 4.647 7.72 4.647 2.213 0 4.647-.332 7.303-.995v3.07c-2.352.526-4.87.789-7.553.789zM26.661 9.95h3.735V39h-3.735V9.95zm17.185 29.465c-2.573 0-4.385-.456-5.436-1.37-1.024-.94-1.536-2.406-1.536-4.398V18.914h3.735V33.44c0 .526.042.955.125 1.287.11.304.29.622.54.954.497.72 1.714 1.079 3.651 1.079 2.047 0 3.486-.194 4.316-.581.802-.387 1.203-1.093 1.203-2.116V18.914h3.735V39h-3.735v-2.449c-.36 1.91-2.559 2.864-6.598 2.864zm22.96 0c-2.131 0-4.427-.166-6.89-.498v-2.864c3.237.526 5.561.789 6.972.789 1.77 0 3.043-.166 3.818-.498.775-.36 1.162-1.01 1.162-1.95V32.36c0-.858-.29-1.466-.871-1.826-.581-.36-1.522-.54-2.822-.54h-2.283c-2.075 0-3.665-.428-4.772-1.286-1.08-.857-1.619-2.061-1.619-3.61V23.23c0-3.154 2.988-4.73 8.964-4.73.443 0 2.476.11 6.1.331v2.698c-2.462-.388-4.55-.581-6.266-.581-1.964 0-3.306.193-4.025.58-.72.388-1.08 1.038-1.08 1.951v1.702c0 1.355 1.232 2.033 3.694 2.033h2.324c4.233 0 6.35 1.577 6.35 4.731v1.743c0 2.075-.72 3.555-2.158 4.44-1.439.858-3.638 1.287-6.599 1.287zm22.342 0c-1.715 0-3.057-.18-4.025-.54-.968-.387-1.674-1.023-2.117-1.908-.415-.913-.622-2.186-.622-3.818V21.363h-4.482v-2.449h4.482V12.69h3.776v6.225h7.18v2.449h-7.18v11.993c0 .996.111 1.743.333 2.241.249.498.663.858 1.245 1.079.608.194 1.48.29 2.614.29.36 0 1.356-.11 2.988-.331v2.448a27.018 27.018 0 01-4.192.332zm16.739 0c-6.142 0-9.213-2.047-9.213-6.142v-7.926c0-2.435.692-4.178 2.075-5.23 1.411-1.078 3.68-1.618 6.806-1.618 2.96 0 5.091.512 6.391 1.536 1.328 1.023 1.992 2.794 1.992 5.312v4.44h-13.487v3.03c0 1.383.484 2.379 1.452 2.987.968.61 2.462.913 4.482.913 1.909 0 4.164-.331 6.764-.995v2.863c-2.545.553-4.966.83-7.262.83zm4.316-12.076v-3.154c0-1.218-.374-2.048-1.121-2.49-.719-.47-1.964-.706-3.735-.706-1.715 0-2.96.235-3.734.706-.775.442-1.162 1.272-1.162 2.49v3.154h9.752zm9.427-8.425h3.527v3.279c0-.637.277-1.231.83-1.785.554-.58 1.259-1.037 2.117-1.37.857-.359 1.701-.539 2.531-.539h1.826v3.196h-2.075c-1.771 0-3.057.235-3.859.705-.775.443-1.162 1.26-1.162 2.449V39h-3.735V18.914zm16.333 2.449h-4.606v-2.449h4.606v-3.237c0-2.296.498-3.887 1.494-4.772 1.024-.913 2.739-1.37 5.146-1.37 1.494 0 2.891.07 4.192.208v2.407a21.88 21.88 0 00-2.822-.208c-1.19 0-2.089.097-2.698.29-.581.195-.996.54-1.245 1.038-.221.47-.332 1.19-.332 2.158v3.486h7.097v2.449h-7.097V39h-3.735V21.363zM149.534 9.95h3.735V39h-3.735V9.95zm18.725 29.465c-1.771 0-3.099-.07-3.984-.207a8.813 8.813 0 01-2.656-.789 3.888 3.888 0 01-1.992-1.992c-.415-.94-.623-2.2-.623-3.776v-6.972c0-1.245.152-2.338.457-3.279.304-.94.705-1.674 1.203-2.2.415-.47 1.038-.83 1.868-1.078a12.192 12.192 0 012.614-.54 56.215 56.215 0 013.113-.083c1.438 0 2.517.042 3.237.125.747.055 1.535.194 2.365.415.858.249 1.522.622 1.992 1.12.47.498.871 1.218 1.203 2.158.305.969.457 2.09.457 3.362v6.972c0 2.351-.54 4.066-1.619 5.145-.442.443-1.079.789-1.909 1.038-.829.249-1.687.415-2.572.498a60.063 60.063 0 01-3.154.083zm0-2.448c1.162 0 2.005-.028 2.531-.084a4.455 4.455 0 001.536-.456 1.894 1.894 0 001.037-1.079c.221-.526.332-1.245.332-2.158v-8.134c0-1.245-.152-2.144-.456-2.697-.305-.581-.83-.955-1.577-1.12-.72-.194-1.854-.291-3.403-.291-1.55 0-2.698.097-3.445.29-.719.166-1.231.54-1.535 1.12-.305.554-.457 1.453-.457 2.698v8.134c0 .913.097 1.632.291 2.158.221.498.581.858 1.079 1.079a4.45 4.45 0 001.535.456c.526.056 1.37.084 2.532.084zm23.586 2.448c-1.771 0-3.098-.07-3.984-.207a8.83 8.83 0 01-2.656-.789 3.888 3.888 0 01-1.992-1.992c-.415-.94-.622-2.2-.622-3.776v-6.972c0-1.245.152-2.338.456-3.279.305-.94.706-1.674 1.204-2.2.415-.47 1.037-.83 1.867-1.078a12.2 12.2 0 012.615-.54 56.178 56.178 0 013.112-.083c1.439 0 2.518.042 3.237.125.747.055 1.536.194 2.366.415.857.249 1.521.622 1.992 1.12.47.498.871 1.218 1.203 2.158.304.969.457 2.09.457 3.362v6.972c0 2.351-.54 4.066-1.619 5.145-.443.443-1.079.789-1.909 1.038-.83.249-1.688.415-2.573.498a60.035 60.035 0 01-3.154.083zm0-2.448c1.162 0 2.006-.028 2.532-.084a4.457 4.457 0 001.535-.456 1.896 1.896 0 001.038-1.079c.221-.526.332-1.245.332-2.158v-8.134c0-1.245-.153-2.144-.457-2.697-.304-.581-.83-.955-1.577-1.12-.719-.194-1.854-.291-3.403-.291s-2.697.097-3.444.29c-.72.166-1.231.54-1.536 1.12-.304.554-.456 1.453-.456 2.698v8.134c0 .913.097 1.632.29 2.158a2.06 2.06 0 001.079 1.079c.498.249 1.01.401 1.536.456.525.056 1.369.084 2.531.084zm15.079-18.053h3.528v3.279c0-.637.276-1.231.83-1.785.553-.58 1.259-1.037 2.116-1.37.858-.359 1.702-.539 2.532-.539h1.826v3.196h-2.075c-1.771 0-3.057.235-3.86.705-.774.443-1.162 1.26-1.162 2.449V39h-3.735V18.914z" fill="#FBFBFB"/></svg><svg fill="none" viewBox="0 0 24 24" id="footer--ok" xmlns="http://www.w3.org/2000/svg"><circle cx="12" cy="11.999" r="11" fill="#FBFBFB" stroke="#FBFBFB" stroke-width="2"/><path d="M12.01 10.287a1.712 1.712 0 001.711-1.728 1.715 1.715 0 00-1.72-1.72 1.718 1.718 0 00-1.726 1.741c.007.954.777 1.71 1.734 1.707z" fill="#ED812B"/><path d="M12 1.999c-5.523 0-10 4.477-10 10s4.477 10 10 10 10-4.477 10-10-4.477-10-10-10zm.014 3.041c1.948.005 3.511 1.599 3.502 3.568-.01 1.924-1.6 3.483-3.544 3.476-1.925-.006-3.503-1.602-3.492-3.53a3.528 3.528 0 013.534-3.514zm3.946 8.429a4.24 4.24 0 01-1.525.985c-.545.21-1.141.317-1.732.388.09.097.132.144.187.2.802.806 1.607 1.607 2.405 2.415.273.275.33.616.18.936-.164.35-.531.58-.89.555-.229-.015-.407-.128-.564-.288-.605-.608-1.221-1.206-1.814-1.826-.172-.18-.255-.146-.408.011-.608.627-1.226 1.243-1.848 1.856-.28.276-.611.325-.936.168-.344-.166-.563-.518-.546-.872.012-.239.13-.421.293-.585.794-.791 1.584-1.585 2.375-2.379.053-.053.102-.108.178-.19-1.079-.113-2.052-.379-2.885-1.03-.103-.08-.21-.159-.304-.25-.365-.35-.401-.751-.113-1.164.247-.353.661-.448 1.092-.245.083.04.163.089.239.141 1.552 1.067 3.684 1.096 5.242.048.155-.118.32-.215.511-.264a.8.8 0 01.918.366c.228.372.225.735-.056 1.024z" fill="#ED812B"/></svg><svg fill="none" viewBox="0 0 24 24" id="footer--pinterest" xmlns="http://www.w3.org/2000/svg"><circle cx="12" cy="11.999" r="11" fill="#FBFBFB" stroke="#FBFBFB" stroke-width="2"/><path fill-rule="evenodd" clip-rule="evenodd" d="M12 21.999c5.523 0 10-4.477 10-10s-4.477-10-10-10-10 4.477-10 10 4.477 10 10 10zm-.797-7.73l.028-.095.062.08c.045.058.087.114.137.164.928.945 2.941.843 4.183-.697 1.079-1.34 1.164-3.236 1.046-4.005-.258-1.687-1.634-3.175-3.811-3.423-1.823-.206-3.82.475-4.894 2.158-.969 1.52-.759 3.315-.026 4.222.215.266.48.47.798.598.162.066.296.008.341-.152.038-.138.072-.276.106-.414l.058-.238c.033-.125-.032-.206-.125-.32l-.032-.041c-.863-1.083-.429-3.451 1.482-4.335 1.668-.772 4.295-.255 4.438 2.142.072 1.202-.307 2.898-1.283 3.605-1.057.767-2.294.02-2.029-1.03.097-.386.202-.733.298-1.049.221-.728.391-1.287.281-1.746-.255-1.065-1.719-.966-2.126.325-.188.597-.145 1.186.07 1.768l.02.158-.384 1.61c-.542 2.265-.605 2.528-.625 3.11a9.445 9.445 0 00.098 1.606c.007.052.014.108.078.122l.121-.078c.272-.35.519-.715.737-1.1.386-.685.482-1.067.77-2.217.053-.214.113-.455.183-.729z" fill="#CB2027"/></svg><svg fill="none" viewBox="0 0 24 24" id="footer--telegram" xmlns="http://www.w3.org/2000/svg"><circle cx="12" cy="11.999" r="11" fill="#FBFBFB" stroke="#FBFBFB" stroke-width="2"/><path fill-rule="evenodd" clip-rule="evenodd" d="M12 22c5.523 0 10-4.477 10-10 0-5.524-4.477-10-10-10S2 6.476 2 12c0 5.523 4.477 10 10 10z" fill="#08C"/><path fill-rule="evenodd" clip-rule="evenodd" d="M5.956 11.254c3.451-1.512 5.753-2.509 6.904-2.99 3.288-1.376 3.971-1.614 4.417-1.622.098-.002.317.022.458.138.12.098.153.23.169.322.016.093.035.304.02.47-.178 1.882-.95 6.45-1.342 8.558-.166.892-.492 1.191-.809 1.22-.687.064-1.21-.456-1.875-.895-1.042-.687-1.63-1.115-2.642-1.785-1.17-.774-.411-1.2.255-1.896.174-.182 3.203-2.952 3.262-3.204.007-.031.014-.148-.055-.21-.07-.062-.172-.041-.245-.024-.105.024-1.77 1.13-4.994 3.319-.473.326-.9.485-1.284.477-.423-.01-1.236-.24-1.84-.438-.742-.243-1.33-.37-1.28-.782.027-.215.32-.434.881-.658z" fill="#fff"/></svg><svg fill="none" viewBox="0 0 24 24" id="footer--twitter" xmlns="http://www.w3.org/2000/svg"><circle cx="12" cy="11.999" r="11" fill="#FBFBFB" stroke="#FBFBFB" stroke-width="2"/><path fill-rule="evenodd" clip-rule="evenodd" d="M12 21.999c5.523 0 10-4.477 10-10 0-5.524-4.477-10-10-10s-10 4.476-10 10c0 5.523 4.477 10 10 10zm4.422-13.112a4.508 4.508 0 001.103-.314h.045v.01c0 .027 0 .096-.058.172a4.315 4.315 0 01-.904.93c-.047.031-.1.067-.1.123 0 1.802-.46 3.6-1.773 4.905-1.672 1.661-4.18 2.113-6.406 1.498a6.127 6.127 0 01-1.24-.495 5.536 5.536 0 01-.385-.23l-.029-.066c.027-.014.048-.015.148 0a4.38 4.38 0 001.853-.237l.058-.02c.343-.12.973-.339 1.162-.627l.015-.014a1.058 1.058 0 00-.142-.021 1.466 1.466 0 01-.101-.012c-.605-.173-1.413-.477-1.787-1.497-.024-.06 0-.09.062-.079.498.039.677.012.85-.026a1.317 1.317 0 01-.288-.088c-.762-.29-1.319-1.033-1.42-1.837a1.33 1.33 0 01-.014-.258l.083-.045c.392.203.832.25.867.244a3.972 3.972 0 01-.276-.244c-.66-.626-.917-1.9-.388-2.692.043-.065.071-.065.124-.005 1.209 1.378 2.697 2.02 4.493 2.287l.045-.052a2.412 2.412 0 01.024-.94c.08-.323.234-.63.444-.888.203-.25.458-.459.743-.608a2.33 2.33 0 01.922-.26 2.213 2.213 0 011.606.545l.114.117.09.023c.46-.115.89-.277 1.308-.5l.058-.005.003.057c-.075.244-.207.47-.366.668-.105.13-.365.451-.543.481z" fill="#184CD1"/></svg><svg fill="none" viewBox="0 0 24 24" id="footer--vk" xmlns="http://www.w3.org/2000/svg"><circle cx="12" cy="11.999" r="11" fill="#FBFBFB" stroke="#FBFBFB" stroke-width="2"/><path fill-rule="evenodd" clip-rule="evenodd" d="M22 11.999c0 5.523-4.477 10-10 10s-10-4.477-10-10 4.477-10 10-10 10 4.477 10 10zm-9.593 4.386h-.785s-1.732.104-3.257-1.484C6.702 13.17 5.233 9.733 5.233 9.733s-.084-.225.008-.334c.103-.123.385-.13.385-.13l1.876-.013s.177.03.303.123c.105.076.163.22.163.22s.303.767.705 1.46c.784 1.355 1.149 1.651 1.415 1.506.388-.212.272-1.915.272-1.915s.007-.618-.196-.893c-.156-.213-.452-.276-.582-.293-.106-.014.067-.26.292-.37.337-.165.934-.174 1.638-.167.55.006.707.04.922.092.498.12.482.505.449 1.336-.01.249-.022.537-.022.87 0 .075-.002.155-.004.237-.012.425-.025.913.255 1.094.143.093.495.014 1.374-1.48.417-.707.73-1.539.73-1.539s.068-.148.174-.212c.108-.064.255-.044.255-.044l1.974-.013s.593-.07.69.197c.1.281-.222.938-1.029 2.013-.766 1.02-1.138 1.396-1.103 1.728.025.243.267.462.73.893.973.902 1.232 1.375 1.293 1.488l.012.02c.435.721-.483.778-.483.778l-1.753.024s-.377.075-.873-.266c-.26-.178-.513-.468-.755-.745-.369-.424-.71-.815-1.001-.723-.49.155-.474 1.209-.474 1.209s.004.225-.108.344c-.12.13-.358.157-.358.157z" fill="#45668E"/></svg><svg fill="none" viewBox="0 0 24 24" id="footer--whatsapp" xmlns="http://www.w3.org/2000/svg"><circle cx="12" cy="12" r="11" fill="#FBFBFB" stroke="#FBFBFB" stroke-width="2"/><path d="M12 21.999c5.523 0 10-4.477 10-10s-4.477-10-10-10-10 4.477-10 10 4.477 10 10 10z" fill="#25D366"/><path d="M9.43 15.916c.082.04.202.121.202.121a4.788 4.788 0 002.45.679c2.646 0 4.8-2.153 4.8-4.799 0-2.646-2.154-4.8-4.8-4.8a4.805 4.805 0 00-4.799 4.8c0 .874.243 1.734.702 2.488 0 0 .083.12.124.204.232.465-.826 1.428-.479 1.79.304.317 1.34-.707 1.8-.483zM6.047 17.98c-.294-.45.859-3.205.859-3.205a5.9 5.9 0 01-.742-2.858A5.924 5.924 0 0112.082 6 5.925 5.925 0 0118 11.916a5.925 5.925 0 01-5.918 5.918 5.9 5.9 0 01-2.813-.718s-2.927 1.313-3.221.863z" fill="#fff"/><path fill-rule="evenodd" clip-rule="evenodd" d="M14.283 12.74c-.243-.146-.56-.308-.847-.191-.22.09-.36.434-.504.61-.073.09-.16.104-.272.06a3.842 3.842 0 01-1.916-1.641c-.077-.119-.063-.211.03-.321.138-.162.31-.347.348-.565.037-.219-.065-.474-.156-.669-.115-.249-.244-.603-.493-.744-.23-.13-.531-.057-.735.11-.352.286-.522.735-.517 1.18.002.127.017.254.047.375.07.294.206.569.36.83.114.197.24.387.375.57.441.6.992 1.122 1.628 1.513.319.194.66.366 1.016.482.398.132.753.269 1.182.187.45-.085.893-.363 1.072-.797a.695.695 0 00.05-.407c-.061-.28-.441-.447-.668-.582z" fill="#fff"/></svg><svg fill="none" viewBox="0 0 24 24" id="footer--youtube" xmlns="http://www.w3.org/2000/svg"><circle cx="12" cy="11.999" r="11" fill="#FBFBFB" stroke="#FBFBFB" stroke-width="2"/><path d="M10.99 13.55l2.753-1.362c.111-.06-.004-.22-.115-.283l-2.636-1.434c-.108-.062-.477.016-.477.14v2.797c0 .123.367.2.474.142z" fill="#C4302B"/><path fill-rule="evenodd" clip-rule="evenodd" d="M12 22c5.523 0 10-4.478 10-10.001s-4.477-10-10-10-10 4.477-10 10 4.477 10 10 10zm2.953-13.856a2.402 2.402 0 012.401 2.401v2.857a2.402 2.402 0 01-2.401 2.402h-6.14a2.402 2.402 0 01-2.402-2.402v-2.857a2.401 2.401 0 012.401-2.401h6.14z" fill="#C4302B"/></svg><svg fill="none" viewBox="0 0 24 24" id="footer--zen" xmlns="http://www.w3.org/2000/svg"><circle cx="12" cy="11.999" r="11" fill="#FBFBFB" stroke="#FBFBFB" stroke-width="2"/><path fill-rule="evenodd" clip-rule="evenodd" d="M12 21.999c5.523 0 10-4.477 10-10s-4.477-10-10-10-10 4.477-10 10 4.477 10 10 10zm-.064-16c-2.473 0-4.187.009-5.07.866C6.009 7.748 6 9.539 6 11.935c2.657-.086 3.87-.15 4.843-1.093.943-.973 1.007-2.186 1.093-4.843zm5.198.866c.857.883.866 2.674.866 5.07-2.657-.086-3.87-.15-4.843-1.093-.943-.973-1.011-2.186-1.093-4.843 2.477 0 4.187.009 5.07.866zm-5.07 11.134c.086-2.657.15-3.87 1.093-4.843a3.35 3.35 0 01.073-.069c.961-.877 2.18-.94 4.77-1.024 0 2.396-.009 4.187-.866 5.07-.883.858-2.593.866-5.07.866zm-5.198-.866C6.009 16.25 6 14.46 6 12.063c2.657.086 3.87.15 4.843 1.093.943.973 1.007 2.186 1.093 4.843-2.477 0-4.187-.008-5.07-.866z" fill="#282C33"/></svg><svg fill="none" viewBox="0 0 411 278" id="form--bg" xmlns="http://www.w3.org/2000/svg"><path d="M404.558 31.93c6.422 11.962 7.048 26.352 2.613 42.175-4.436 15.826-13.927 33.055-27.685 50.644-27.516 35.177-72.042 71.715-127.063 101.253-55.022 29.538-110.078 46.46-154.601 49.958-22.263 1.749-41.867.139-57.509-4.908-15.638-5.047-27.287-13.519-33.709-25.482-6.422-11.963-7.047-26.353-2.612-42.176 4.435-15.826 13.926-33.055 27.685-50.644 27.516-35.177 72.042-71.715 127.063-101.253 55.021-29.538 110.078-46.46 154.601-49.958 22.262-1.749 41.866-.14 57.508 4.909 15.639 5.046 27.287 13.518 33.709 25.481z" stroke="url(#akpaint0_linear_2309_12596)"/><defs><linearGradient id="akpaint0_linear_2309_12596" x1="6.164" y1="245.806" x2="404.999" y2="31.693" gradientUnits="userSpaceOnUse"><stop stop-color="#22BAFB"/><stop offset=".234" stop-color="#64EEB4"/><stop offset=".547" stop-color="#FFF5DD"/><stop offset=".654" stop-color="#C8F3F9"/><stop offset="1" stop-color="#184CD1"/></linearGradient></defs></svg><svg fill="none" viewBox="0 0 699 229" id="form-sent" xmlns="http://www.w3.org/2000/svg"><path d="M785 175.31c-113 77.69-370.767 59.003-443.017 0-90.313-73.753-24.248-217.398 15.11-160.15 18.158 26.41 46.035-22.127 65.714 12.292C436.89 52.083 391.18 228.694-40 206.568" stroke="url(#alpaint0_linear_2644_11149)" stroke-width="3"/><defs><linearGradient id="alpaint0_linear_2644_11149" x1="784.403" y1="159.509" x2="608.13" y2="-161.665" gradientUnits="userSpaceOnUse"><stop stop-color="#22BAFB"/><stop offset=".234" stop-color="#64EEB4"/><stop offset=".547" stop-color="#FFF5DD"/><stop offset=".654" stop-color="#C8F3F9"/><stop offset="1" stop-color="#184CD1"/></linearGradient></defs></svg><svg fill="none" viewBox="0 0 331 146" id="header--banner--button" xmlns="http://www.w3.org/2000/svg"><path d="M329.535 42.297c1.627 8.664-1.224 17.849-7.986 27.094-6.763 9.247-17.385 18.472-31.108 27.142-27.44 17.337-67.097 32.341-112.464 40.856-45.368 8.516-87.766 8.915-119.625 2.709-15.933-3.104-29.177-7.849-38.833-14.014-9.655-6.164-15.642-13.69-17.268-22.354-1.626-8.664 1.224-17.849 7.986-27.094C17 67.389 27.622 58.164 41.345 49.494c27.44-17.337 67.097-32.34 112.464-40.856C199.177.122 241.575-.277 273.434 5.929c15.933 3.104 29.177 7.85 38.834 14.014 9.654 6.164 15.641 13.69 17.267 22.354z" stroke="url(#ampaint0_linear_7_68)" stroke-width="2"/><defs><linearGradient id="ampaint0_linear_7_68" x1="1.268" y1="103.914" x2="330.518" y2="42.113" gradientUnits="userSpaceOnUse"><stop stop-color="#22BAFB"/><stop offset=".234" stop-color="#64EEB4"/><stop offset=".547" stop-color="#FFF5DD"/><stop offset=".654" stop-color="#C8F3F9"/><stop offset="1" stop-color="#184CD1"/></linearGradient></defs></svg><svg fill="none" viewBox="0 0 1427 610" id="header--banner--ellipse4-1" xmlns="http://www.w3.org/2000/svg"><path d="M.954 304.682c0 41.744 19.796 81.593 55.762 117.925 35.97 36.336 88.066 69.102 152.518 96.64 128.9 55.075 307.04 89.163 503.857 89.163 196.818 0 374.959-34.088 503.859-89.163 64.45-27.538 116.55-60.304 152.52-96.64 35.96-36.332 55.76-76.181 55.76-117.925s-19.8-81.593-55.76-117.925c-35.97-36.336-88.07-69.102-152.52-96.64C1088.05 35.042 909.909.954 713.091.954c-196.817 0-374.957 34.088-503.857 89.163-64.452 27.538-116.548 60.304-152.518 96.64C20.75 223.089.954 262.938.954 304.682z" stroke="url(#anpaint0_linear_1_1829)" stroke-width="1.908"/><defs><linearGradient id="anpaint0_linear_1_1829" x1="1426.18" y1="304.681" x2="-.001" y2="304.681" gradientUnits="userSpaceOnUse"><stop stop-color="#22BAFB"/><stop offset=".234" stop-color="#64EEB4"/><stop offset=".547" stop-color="#FFF5DD"/><stop offset=".654" stop-color="#C8F3F9"/><stop offset="1" stop-color="#184CD1"/></linearGradient></defs></svg><svg fill="none" viewBox="0 0 1277 1202" id="header--banner--ellipses-2" xmlns="http://www.w3.org/2000/svg"><path d="M208.657 925.892c-57.195-75.572-61.062-180.403-20.857-288.928 40.201-108.513 124.433-220.596 243.198-310.481 118.765-89.885 249.513-140.505 364.866-149.72 115.365-9.216 215.206 22.98 272.396 98.552 57.2 75.572 61.07 180.404 20.86 288.929-40.2 108.513-124.431 220.596-243.196 310.481-118.765 89.885-249.513 140.505-364.866 149.715-115.366 9.22-215.206-22.98-272.401-98.548z" stroke="url(#aopaint0_linear_93_13126)" stroke-width="1.705"/><path d="M101.546 785.277c-9.074-94.34 42.603-185.632 133.744-256.957 91.132-71.319 221.626-122.589 369.887-136.849 148.26-14.261 286.134 11.196 389.189 63.837 103.064 52.646 171.194 132.413 180.274 226.754 9.07 94.34-42.61 185.631-133.75 256.957-91.13 71.321-221.625 122.591-369.885 136.851-148.26 14.26-286.134-11.2-389.189-63.84-103.065-52.645-171.196-132.413-180.27-226.753z" stroke="url(#aopaint1_linear_93_13126)" stroke-width="1.705"/><defs><linearGradient id="aopaint0_linear_93_13126" x1="1068.94" y1="274.801" x2="207.978" y2="926.407" gradientUnits="userSpaceOnUse"><stop stop-color="#22BAFB"/><stop offset=".234" stop-color="#64EEB4"/><stop offset=".547" stop-color="#FFF5DD"/><stop offset=".654" stop-color="#C8F3F9"/><stop offset="1" stop-color="#184CD1"/></linearGradient><linearGradient id="aopaint1_linear_93_13126" x1="1175.48" y1="681.981" x2="100.697" y2="785.359" gradientUnits="userSpaceOnUse"><stop stop-color="#22BAFB"/><stop offset=".234" stop-color="#64EEB4"/><stop offset=".547" stop-color="#FFF5DD"/><stop offset=".654" stop-color="#C8F3F9"/><stop offset="1" stop-color="#184CD1"/></linearGradient></defs></svg><svg fill="none" viewBox="0 0 38 38" id="header--banner--param1" xmlns="http://www.w3.org/2000/svg"><path d="M12.635 6.723l6.48 6.487 6.562-6.487-1.015-1.03-4.82 4.766V.812h-1.448v9.632L13.658 5.7l-1.023 1.023zM37.31 23.418v-1.44H.934v1.44H37.31zm0-8.844H.934v1.448H37.31v-1.448zM25.677 31.27l-6.563-6.48-6.48 6.48 1.024 1.023 4.736-4.737v9.632h1.448v-9.647l4.82 4.76 1.015-1.032z" fill="#FBFBFB"/></svg><svg fill="none" viewBox="0 0 37 38" id="header--banner--param2" xmlns="http://www.w3.org/2000/svg"><path d="M.15.812v36.376h36.376V.812H.149zm18.188 12.516l6.421-6.354-.995-1.01-4.721 4.67v-8.71h16.37v12.74H1.262V1.925h16.37v8.694L12.984 5.97l-1.002 1.002 6.355 6.355zm17.074 2.755v5.835H1.263v-5.835h34.15zm0 7.253v12.739h-16.37v-8.708l4.722 4.662.995-1.01-6.421-6.347-6.355 6.347 1.002 1.002 4.647-4.647v8.7H1.263V23.337h34.15z" fill="#FBFBFB"/></svg><svg fill="none" viewBox="0 0 38 38" id="header--banner--param3" xmlns="http://www.w3.org/2000/svg"><path d="M3.015 14.603V3.266c0-.41.156-.803.436-1.092a1.46 1.46 0 011.052-.453h29.762c.395 0 .774.163 1.053.453.279.29.436.682.436 1.092v11.337c0 16.222-13.263 21.591-15.905 22.499-.3.115-.63.115-.93 0-2.641-.908-15.904-6.277-15.904-22.5z" stroke="#FBFBFB" stroke-width="1.364" stroke-linecap="round" stroke-linejoin="round"/><path d="M23.99 19.666a5.526 5.526 0 01-4.594 4.594m-6.774-13.337c-1.63 2.456-2.964 5.271-2.964 7.897a8.892 8.892 0 1017.783 0c0-5.505-3.81-9.739-6.901-12.82l-3.684 7.739-4.234-2.816z" stroke="#FBFBFB" stroke-width="1.36" stroke-linecap="round" stroke-linejoin="round"/></svg><svg fill="none" viewBox="0 0 37 38" id="header--banner--param3-2" xmlns="http://www.w3.org/2000/svg"><path d="M34.114 8.71a10.976 10.976 0 01-15.427 13.914L9.05 33.79a4.13 4.13 0 01-5.84-5.84l11.166-9.637A10.977 10.977 0 0128.29 2.886l-7.215 7.198.98 4.862 4.86.979 7.199-7.215z" stroke="#FBFBFB" stroke-width="1.118" stroke-linecap="square" stroke-linejoin="bevel"/></svg><svg fill="none" viewBox="0 0 38 38" id="header--banner--param3-5" xmlns="http://www.w3.org/2000/svg"><path d="M3.015 14.603V3.266c0-.41.156-.802.436-1.092a1.46 1.46 0 011.052-.453h29.762c.395 0 .774.163 1.053.453.279.29.436.683.436 1.092v11.337c0 16.222-13.263 21.591-15.905 22.499-.3.115-.63.115-.93 0-2.641-.908-15.904-6.277-15.904-22.5z" stroke="#FBFBFB" stroke-width="1.364" stroke-linecap="round" stroke-linejoin="round"/><path d="M19.385 23.391a5.755 5.755 0 100-11.51 5.755 5.755 0 000 11.51zm0-14.579V6.894m-6.245 4.498l-1.352-1.352m-1.228 7.596H8.642m4.498 6.244l-1.352 1.353m7.597 1.227v1.919m6.244-4.499l1.352 1.353m1.228-7.597h1.918m-4.498-6.244l1.352-1.352" stroke="#FBFBFB" stroke-width="1.535" stroke-linecap="round" stroke-linejoin="round"/></svg><svg fill="none" viewBox="0 0 37 38" id="header--banner--param4" xmlns="http://www.w3.org/2000/svg"><path d="M2.274 15.78l15.916 9.094 15.916-9.095L18.19 6.684 2.274 15.78z" stroke="#FBFBFB" stroke-width="1.36" stroke-linecap="round" stroke-linejoin="round"/><path d="M2.274 21.464l15.916 9.095 15.916-9.095" stroke="#FBFBFB" stroke-width="1.36" stroke-linecap="round" stroke-linejoin="round"/></svg><svg fill="none" viewBox="0 0 56 56" id="header--banner--slider-arrow" xmlns="http://www.w3.org/2000/svg"><rect x="-.75" y=".75" width="54.5" height="54.5" rx="25.917" transform="matrix(-1 0 0 1 54.5 0)" fill="#fff" fill-opacity=".02"/><path d="M34.867 14.264c0 3.861-9.157 10.766-13.736 13.736 4.579 3.341 13.736 10.766 13.736 13.736" stroke="#FBFBFB" stroke-width="1.5" stroke-linejoin="bevel"/><rect x="-.75" y=".75" width="54.5" height="54.5" rx="25.917" transform="matrix(-1 0 0 1 54.5 0)" stroke="#FBFBFB" stroke-width="1.5"/></svg><svg fill="none" viewBox="0 0 331 146" id="header--banner--submit" xmlns="http://www.w3.org/2000/svg"><path d="M329.535 42.297c1.627 8.664-1.224 17.849-7.986 27.094-6.763 9.247-17.385 18.472-31.108 27.142-27.44 17.337-67.097 32.341-112.464 40.856-45.368 8.516-87.766 8.915-119.625 2.709-15.933-3.104-29.177-7.849-38.833-14.014-9.655-6.164-15.642-13.69-17.268-22.354-1.626-8.664 1.224-17.849 7.986-27.094C17 67.389 27.622 58.164 41.345 49.494c27.44-17.337 67.097-32.34 112.464-40.856C199.177.122 241.575-.277 273.434 5.929c15.933 3.104 29.177 7.85 38.834 14.014 9.654 6.164 15.641 13.69 17.267 22.354z" stroke="url(#awpaint0_linear_2_36)" stroke-width="2"/><defs><linearGradient id="awpaint0_linear_2_36" x1="1.268" y1="103.914" x2="330.518" y2="42.113" gradientUnits="userSpaceOnUse"><stop stop-color="#22BAFB"/><stop offset=".234" stop-color="#64EEB4"/><stop offset=".547" stop-color="#FFF5DD"/><stop offset=".654" stop-color="#C8F3F9"/><stop offset="1" stop-color="#184CD1"/></linearGradient></defs></svg><svg fill="none" viewBox="0 0 3 10" id="header--nav--Icon" xmlns="http://www.w3.org/2000/svg"><path d="M0 5c0 .69.672 1.25 1.5 1.25S3 5.69 3 5s-.672-1.25-1.5-1.25S0 4.31 0 5zm0-3.75C0 1.94.672 2.5 1.5 2.5S3 1.94 3 1.25 2.328 0 1.5 0 0 .56 0 1.25zm0 7.5C0 9.44.672 10 1.5 10S3 9.44 3 8.75 2.328 7.5 1.5 7.5 0 8.06 0 8.75z" fill="#FBFBFB"/></svg><svg fill="none" viewBox="0 0 219 55" id="header--top--logo" xmlns="http://www.w3.org/2000/svg"><path d="M47.96 48.28s30.401-8.99 58.466-3.509c24.221 4.73 64.429-1.557 64.429-1.557s-38.885 17.064-64.698 10.127c-26.88-7.224-58.198-5.061-58.198-5.061z" fill="#184CD1"/><path d="M13.985 39.415c-7.553 0-11.329-2.435-11.329-7.304V19.33c0-5.146 3.776-7.719 11.33-7.719 2.572 0 5.034.263 7.386.789v2.988c-2.656-.664-5.09-.996-7.304-.996-1.079 0-2.02.069-2.822.207a9.612 9.612 0 00-2.324.623c-1.604.691-2.407 2.047-2.407 4.067v12.616c0 3.098 2.573 4.647 7.72 4.647 2.213 0 4.647-.332 7.303-.995v3.07c-2.352.526-4.87.789-7.553.789zM26.661 9.95h3.735V39h-3.735V9.95zm17.185 29.465c-2.573 0-4.385-.456-5.436-1.37-1.024-.94-1.536-2.406-1.536-4.398V18.914h3.735V33.44c0 .526.042.955.125 1.287.11.304.29.622.54.954.497.72 1.714 1.079 3.651 1.079 2.047 0 3.486-.194 4.316-.581.802-.387 1.203-1.093 1.203-2.116V18.914h3.735V39h-3.735v-2.449c-.36 1.91-2.559 2.864-6.598 2.864zm22.96 0c-2.131 0-4.427-.166-6.89-.498v-2.864c3.237.526 5.561.789 6.972.789 1.77 0 3.043-.166 3.818-.498.775-.36 1.162-1.01 1.162-1.95V32.36c0-.858-.29-1.466-.871-1.826-.581-.36-1.522-.54-2.822-.54h-2.283c-2.075 0-3.665-.428-4.772-1.286-1.08-.857-1.619-2.061-1.619-3.61V23.23c0-3.154 2.988-4.73 8.964-4.73.443 0 2.476.11 6.1.331v2.698c-2.462-.388-4.55-.581-6.266-.581-1.964 0-3.306.193-4.025.58-.72.388-1.08 1.038-1.08 1.951v1.702c0 1.355 1.232 2.033 3.694 2.033h2.324c4.233 0 6.35 1.577 6.35 4.731v1.743c0 2.075-.72 3.555-2.158 4.44-1.439.858-3.638 1.287-6.599 1.287zm22.342 0c-1.715 0-3.057-.18-4.025-.54-.968-.387-1.674-1.023-2.117-1.908-.415-.913-.622-2.186-.622-3.818V21.363h-4.482v-2.449h4.482V12.69h3.776v6.225h7.18v2.449h-7.18v11.993c0 .996.111 1.743.333 2.241.249.498.663.858 1.245 1.079.608.194 1.48.29 2.614.29.36 0 1.356-.11 2.988-.331v2.448a27.018 27.018 0 01-4.192.332zm16.739 0c-6.142 0-9.213-2.047-9.213-6.142v-7.926c0-2.435.692-4.178 2.075-5.23 1.411-1.078 3.68-1.618 6.806-1.618 2.96 0 5.091.512 6.391 1.536 1.328 1.023 1.992 2.794 1.992 5.312v4.44h-13.487v3.03c0 1.383.484 2.379 1.452 2.987.968.61 2.462.913 4.482.913 1.909 0 4.164-.331 6.764-.995v2.863c-2.545.553-4.966.83-7.262.83zm4.316-12.076v-3.154c0-1.218-.374-2.048-1.121-2.49-.719-.47-1.964-.706-3.735-.706-1.715 0-2.96.235-3.734.706-.775.442-1.162 1.272-1.162 2.49v3.154h9.752zm9.427-8.425h3.527v3.279c0-.637.277-1.231.83-1.785.554-.58 1.259-1.037 2.117-1.37.857-.359 1.701-.539 2.531-.539h1.826v3.196h-2.075c-1.771 0-3.057.235-3.859.705-.775.443-1.162 1.26-1.162 2.449V39h-3.735V18.914zm16.333 2.449h-4.606v-2.449h4.606v-3.237c0-2.296.498-3.887 1.494-4.772 1.024-.913 2.739-1.37 5.146-1.37 1.494 0 2.891.07 4.192.208v2.407a21.88 21.88 0 00-2.822-.208c-1.19 0-2.089.097-2.698.29-.581.195-.996.54-1.245 1.038-.221.47-.332 1.19-.332 2.158v3.486h7.097v2.449h-7.097V39h-3.735V21.363zM149.534 9.95h3.735V39h-3.735V9.95zm18.725 29.465c-1.771 0-3.099-.07-3.984-.207a8.813 8.813 0 01-2.656-.789 3.888 3.888 0 01-1.992-1.992c-.415-.94-.623-2.2-.623-3.776v-6.972c0-1.245.152-2.338.457-3.279.304-.94.705-1.674 1.203-2.2.415-.47 1.038-.83 1.868-1.078a12.192 12.192 0 012.614-.54 56.215 56.215 0 013.113-.083c1.438 0 2.517.042 3.237.125.747.055 1.535.194 2.365.415.858.249 1.522.622 1.992 1.12.47.498.871 1.218 1.203 2.158.305.969.457 2.09.457 3.362v6.972c0 2.351-.54 4.066-1.619 5.145-.442.443-1.079.789-1.909 1.038-.829.249-1.687.415-2.572.498a60.063 60.063 0 01-3.154.083zm0-2.448c1.162 0 2.005-.028 2.531-.084a4.455 4.455 0 001.536-.456 1.894 1.894 0 001.037-1.079c.221-.526.332-1.245.332-2.158v-8.134c0-1.245-.152-2.144-.456-2.697-.305-.581-.83-.955-1.577-1.12-.72-.194-1.854-.291-3.403-.291-1.55 0-2.698.097-3.445.29-.719.166-1.231.54-1.535 1.12-.305.554-.457 1.453-.457 2.698v8.134c0 .913.097 1.632.291 2.158.221.498.581.858 1.079 1.079a4.45 4.45 0 001.535.456c.526.056 1.37.084 2.532.084zm23.586 2.448c-1.771 0-3.098-.07-3.984-.207a8.83 8.83 0 01-2.656-.789 3.888 3.888 0 01-1.992-1.992c-.415-.94-.622-2.2-.622-3.776v-6.972c0-1.245.152-2.338.456-3.279.305-.94.706-1.674 1.204-2.2.415-.47 1.037-.83 1.867-1.078a12.2 12.2 0 012.615-.54 56.178 56.178 0 013.112-.083c1.439 0 2.518.042 3.237.125.747.055 1.536.194 2.366.415.857.249 1.521.622 1.992 1.12.47.498.871 1.218 1.203 2.158.304.969.457 2.09.457 3.362v6.972c0 2.351-.54 4.066-1.619 5.145-.443.443-1.079.789-1.909 1.038-.83.249-1.688.415-2.573.498a60.035 60.035 0 01-3.154.083zm0-2.448c1.162 0 2.006-.028 2.532-.084a4.457 4.457 0 001.535-.456 1.896 1.896 0 001.038-1.079c.221-.526.332-1.245.332-2.158v-8.134c0-1.245-.153-2.144-.457-2.697-.304-.581-.83-.955-1.577-1.12-.719-.194-1.854-.291-3.403-.291s-2.697.097-3.444.29c-.72.166-1.231.54-1.536 1.12-.304.554-.456 1.453-.456 2.698v8.134c0 .913.097 1.632.29 2.158a2.06 2.06 0 001.079 1.079c.498.249 1.01.401 1.536.456.525.056 1.369.084 2.531.084zm15.079-18.053h3.528v3.279c0-.637.276-1.231.83-1.785.553-.58 1.259-1.037 2.116-1.37.858-.359 1.702-.539 2.532-.539h1.826v3.196h-2.075c-1.771 0-3.057.235-3.86.705-.774.443-1.162 1.26-1.162 2.449V39h-3.735V18.914z" fill="#FBFBFB"/></svg><svg fill="none" viewBox="0 0 32 32" id="header--top--search" xmlns="http://www.w3.org/2000/svg"><path d="M14.488 25c5.794 0 10.49-4.701 10.49-10.5S20.283 4 14.489 4C8.694 4 3.997 8.701 3.997 14.5S8.694 25 14.487 25zm7.418-3.075L27.976 28" stroke="#FBFBFB" stroke-linecap="round" stroke-linejoin="round"/></svg><svg fill="none" viewBox="0 0 40 39" id="header--top--search-off" xmlns="http://www.w3.org/2000/svg"><path d="M38.102 1L1 38.102M1.48 1l37.102 37.102" stroke="#FBFBFB" stroke-linecap="round" stroke-linejoin="round"/></svg><svg fill="none" viewBox="0 0 24 24" id="header--top--tg" xmlns="http://www.w3.org/2000/svg"><path d="M12 24c6.627 0 12-5.373 12-12S18.627 0 12 0 0 5.373 0 12s5.373 12 12 12z" fill="#2AABEE"/><path fill-rule="evenodd" clip-rule="evenodd" d="M5.432 11.873c3.498-1.524 5.83-2.529 6.998-3.014 3.333-1.386 4.025-1.627 4.476-1.635.1-.002.322.023.465.14a.506.506 0 01.171.325c.016.093.036.306.02.472-.18 1.898-.962 6.502-1.36 8.627-.168.9-.499 1.201-.82 1.23-.696.065-1.225-.46-1.9-.902-1.056-.693-1.653-1.124-2.678-1.8-1.185-.78-.417-1.21.258-1.91.177-.184 3.247-2.977 3.307-3.23.007-.032.014-.15-.056-.212-.07-.063-.174-.041-.249-.024-.106.024-1.793 1.139-5.061 3.345-.48.33-.913.49-1.302.481-.428-.01-1.252-.242-1.865-.441-.752-.245-1.349-.374-1.297-.789.027-.216.325-.437.893-.663z" fill="#fff"/></svg><svg fill="none" viewBox="0 0 24 24" id="header--top--whatsapp" xmlns="http://www.w3.org/2000/svg"><path d="M24 12c0 6.628-5.372 12-12 12-6.627 0-12-5.372-12-12S5.373 0 12 0c6.628 0 12 5.372 12 12z" fill="#3CBA64"/><path d="M9.455 16.386c.097.047.237.141.237.141.867.517 1.854.79 2.853.79a5.596 5.596 0 005.59-5.589 5.596 5.596 0 00-5.59-5.59 5.597 5.597 0 00-5.59 5.59c0 1.018.283 2.02.818 2.898 0 0 .097.14.145.238.27.541-.962 1.663-.558 2.084.354.37 1.56-.823 2.095-.562zm-3.938 2.405c-.342-.524 1-3.734 1-3.734a6.872 6.872 0 01-.864-3.329 6.9 6.9 0 016.892-6.893 6.9 6.9 0 016.893 6.893 6.9 6.9 0 01-6.893 6.893 6.882 6.882 0 01-3.276-.836s-3.41 1.53-3.752 1.006z" fill="#fff"/><path fill-rule="evenodd" clip-rule="evenodd" d="M15.11 12.687c-.284-.17-.653-.36-.987-.223-.257.105-.42.506-.587.712-.086.104-.187.12-.318.069a4.474 4.474 0 01-2.231-1.912c-.09-.138-.074-.246.034-.373.16-.19.362-.405.406-.658.043-.255-.076-.553-.182-.78-.134-.29-.284-.702-.574-.867-.267-.15-.618-.065-.856.128-.41.334-.608.857-.602 1.376.001.147.02.295.054.437a3.6 3.6 0 00.419.966c.134.229.28.45.437.665a6.76 6.76 0 001.897 1.76c.37.227.77.427 1.183.563.464.153.877.313 1.377.217.524-.099 1.04-.423 1.249-.928a.809.809 0 00.058-.474c-.071-.326-.514-.52-.778-.678" fill="#fff"/></svg><svg data-name="Слой 1" viewBox="0 0 262 262" id="peculiar--bubble" xmlns="http://www.w3.org/2000/svg"><defs><linearGradient id="bda" x1="-434" y1="236" x2="-176" y2="236" gradientTransform="matrix(1 0 0 -1 436 367)" gradientUnits="userSpaceOnUse"><stop offset="0" stop-color="#22bafb"/><stop offset=".23" stop-color="#64eeb4"/><stop offset=".55" stop-color="#fff5dd"/><stop offset=".65" stop-color="#c8f3f9"/><stop offset="1" stop-color="#184cd1"/></linearGradient></defs><circle cx="131" cy="131" r="130" fill="#25272d" stroke-width="2" stroke="url(#bda)"/></svg><svg fill="none" viewBox="0 0 47 47" id="peculiar--bubble1" xmlns="http://www.w3.org/2000/svg"><path d="M38.188 26.438c0-13.22-14.688-23.5-14.688-23.5s-14.688 10.28-14.688 23.5a14.687 14.687 0 1029.376 0z" fill="#25272D" stroke="#FBFBFB" stroke-width="2" stroke-linecap="round" stroke-linejoin="bevel"/><path d="M24.986 35.103a8.794 8.794 0 007.197-7.178" stroke="#FBFBFB" stroke-width="2" stroke-linecap="round" stroke-linejoin="bevel"/></svg><svg fill="none" viewBox="0 0 47 47" id="peculiar--bubble2" xmlns="http://www.w3.org/2000/svg"><path d="M40.188 13.034a11.732 11.732 0 01-16.486 14.872l-10.3 11.933a4.414 4.414 0 01-6.242-6.242l11.934-10.3a11.732 11.732 0 0114.87-16.486l-7.71 7.692L27.3 19.7l5.196 1.046 7.692-7.71z" stroke="#FBFBFB" stroke-width="2" stroke-linecap="square" stroke-linejoin="bevel"/></svg><svg fill="none" viewBox="0 0 47 47" id="peculiar--bubble3" xmlns="http://www.w3.org/2000/svg"><path d="M11.75 35.25C2.936 20.563 14.686 5.875 39.654 7.344c1.47 24.969-13.218 36.719-27.906 27.906z" fill="#25272D" stroke="#FBFBFB" stroke-width="2" stroke-linecap="square" stroke-linejoin="bevel"/><path d="M29.375 17.625L7.344 39.656" stroke="#FBFBFB" stroke-width="2" stroke-linecap="square" stroke-linejoin="bevel"/></svg><svg fill="none" viewBox="0 0 47 47" id="peculiar--bubble4" xmlns="http://www.w3.org/2000/svg"><path d="M7.344 21.058V10.281a1.469 1.469 0 011.468-1.469h29.376a1.469 1.469 0 011.468 1.47v10.776c0 15.422-13.09 20.526-15.697 21.389-.296.11-.622.11-.918 0-2.607-.863-15.697-5.967-15.697-21.389z" fill="#25272D" stroke="#FBFBFB" stroke-width="2" stroke-linecap="square" stroke-linejoin="bevel"/></svg><svg fill="none" viewBox="0 0 47 47" id="peculiar--bubble5" xmlns="http://www.w3.org/2000/svg"><path d="M38.922 18.36a3.672 3.672 0 100-7.344 3.672 3.672 0 000 7.343zm-22.766 8.628V8.813a5.875 5.875 0 1111.75 0v18.175a9.546 9.546 0 11-11.75 0z" fill="#25272D" stroke="#FBFBFB" stroke-width="2" stroke-linecap="square" stroke-linejoin="bevel"/><path d="M22.031 38.188a3.672 3.672 0 100-7.344 3.672 3.672 0 000 7.343zm0-7.344V16.156" stroke="#FBFBFB" stroke-width="2" stroke-linecap="square" stroke-linejoin="bevel"/></svg><svg fill="none" viewBox="0 0 47 47" id="peculiar--bubble6" xmlns="http://www.w3.org/2000/svg"><path d="M23.5 41.125c9.734 0 17.625-7.891 17.625-17.625S33.234 5.875 23.5 5.875 5.875 13.766 5.875 23.5 13.766 41.125 23.5 41.125z" fill="#25272D" stroke="#FBFBFB" stroke-width="2" stroke-miterlimit="10" stroke-linecap="square" stroke-linejoin="bevel"/><path d="M23.5 13.219V23.5h10.281" fill="#25272D"/><path d="M23.5 13.219V23.5h10.281" stroke="#FBFBFB" stroke-width="2" stroke-linecap="square" stroke-linejoin="bevel"/></svg><svg fill="none" viewBox="0 0 499 337" id="product--board" xmlns="http://www.w3.org/2000/svg"><path d="M151.813 5.129l-3.074-4.61-2.954 4.961 5.517.508.511-.86zm327.021 195.934l3.074 4.609 2.955-4.961-5.518-.507-.511.859zM150.872 5.733l328.391 195.586.512-.86L151.384 4.873l-.512.86z" fill="url(#bkpaint0_linear_156_13103)"/><g filter="url(#bkfilter0_d_156_13103)"><path fill-rule="evenodd" clip-rule="evenodd" d="M54.87 62.264l73.393-42.883L475.13 220.122v.787l-2.003 1.126-.187.106v2.046l.097.088 2.458 2.237v.441l-89.04 52.143L39.221 76.213v-.788l2.003-1.126.188-.106v-1.042l-.188-.105-2.003-1.126v-.429l89.45-47.247-.818-.53-72.983 38.55zm-16.627 8.782l-.065-.038 89.651-52.382.43-.251.432.25L476.17 219.72l.181.104v1.389l-.187.105-2.003 1.126v1.533l2.458 2.238.097.088v.916h-.133l.092.053-89.788 52.581-.431.253-.432-.253L38.179 76.613 38 76.51v-1.39l.187-.105 2.003-1.126v-.435l-2.002-1.126-.188-.106v-1.049l.201-.106.042-.022z" fill="#FBFBFB"/><path transform="matrix(-.86603 -.5 -.86603 .5 474.491 219.268)" fill="#262D3F" stroke="#FBFBFB" d="M-.866 0H399.79v102.521H-.866z"/></g><path d="M410.058 291.864l-5.522.461 2.912 4.985 3.114-4.582-.504-.864zm80.854-46.063l5.521-.461-2.911-4.986-3.114 4.583.504.864zM410.13 292.98l81.214-47.432-.504-.863-81.214 47.431.504.864z" fill="url(#bkpaint1_linear_156_13103)"/><path d="M492.385 215.559l2.387-5h-5.774l2.387 5h1zm-1 10.563l-2.387 5h5.774l-2.387-5h-1zm0-11.063v11.563h1v-11.563h-1z" fill="url(#bkpaint2_linear_156_13103)"/><defs><linearGradient id="bkpaint0_linear_156_13103" x1="147.006" y1="3.43" x2="483.129" y2="203.622" gradientUnits="userSpaceOnUse"><stop stop-color="#22BAFB"/><stop offset=".234" stop-color="#64EEB4"/><stop offset=".547" stop-color="#FFF5DD"/><stop offset=".654" stop-color="#C8F3F9"/><stop offset="1" stop-color="#184CD1"/></linearGradient><linearGradient id="bkpaint1_linear_156_13103" x1="405.992" y1="268.832" x2="494.978" y2="268.832" gradientUnits="userSpaceOnUse"><stop stop-color="#22BAFB"/><stop offset=".234" stop-color="#64EEB4"/><stop offset=".547" stop-color="#FFF5DD"/><stop offset=".654" stop-color="#C8F3F9"/><stop offset="1" stop-color="#184CD1"/></linearGradient><linearGradient id="bkpaint2_linear_156_13103" x1="492.311" y1="231.122" x2="492.409" y2="210.558" gradientUnits="userSpaceOnUse"><stop stop-color="#22BAFB"/><stop offset=".234" stop-color="#64EEB4"/><stop offset=".547" stop-color="#FFF5DD"/><stop offset=".654" stop-color="#C8F3F9"/><stop offset="1" stop-color="#184CD1"/></linearGradient><filter id="bkfilter0_d_156_13103" x="0" y="14.375" width="498.717" height="321.731" filterUnits="userSpaceOnUse" color-interpolation-filters="sRGB"><feFlood flood-opacity="0" result="BackgroundImageFix"/><feColorMatrix in="SourceAlpha" values="0 0 0 0 0 0 0 0 0 0 0 0 0 0 0 0 0 0 127 0" result="hardAlpha"/><feMorphology radius="5" operator="dilate" in="SourceAlpha" result="effect1_dropShadow_156_13103"/><feOffset dx="-8" dy="26"/><feGaussianBlur stdDeviation="12.5"/><feComposite in2="hardAlpha" operator="out"/><feColorMatrix values="0 0 0 0 0.0802951 0 0 0 0 0.109844 0 0 0 0 0.154167 0 0 0 0.39 0"/><feBlend in2="BackgroundImageFix" result="effect1_dropShadow_156_13103"/><feBlend in="SourceGraphic" in2="effect1_dropShadow_156_13103" result="shape"/></filter></defs></svg><svg fill="none" viewBox="0 0 263 262" id="product--bubble" xmlns="http://www.w3.org/2000/svg"><circle cx="131.5" cy="131" r="130" fill="#1E2536" stroke="url(#blpaint0_linear_1586_7376)" stroke-width="2"/><defs><linearGradient id="blpaint0_linear_1586_7376" x1="2.5" y1="131" x2="260.5" y2="131" gradientUnits="userSpaceOnUse"><stop stop-color="#22BAFB"/><stop offset=".234" stop-color="#64EEB4"/><stop offset=".547" stop-color="#FFF5DD"/><stop offset=".654" stop-color="#C8F3F9"/><stop offset="1" stop-color="#184CD1"/></linearGradient></defs></svg><svg fill="none" viewBox="0 0 45 1" id="product--line-icon" xmlns="http://www.w3.org/2000/svg"><path d="M.5.5h44.273" stroke="url(#bmpaint0_linear_1586_7316)"/><defs><linearGradient id="bmpaint0_linear_1586_7316" x1=".5" y1=".5" x2="1.219" y2="-4.939" gradientUnits="userSpaceOnUse"><stop stop-color="#22BAFB"/><stop offset=".234" stop-color="#64EEB4"/><stop offset=".547" stop-color="#FFF5DD"/><stop offset=".654" stop-color="#C8F3F9"/><stop offset="1" stop-color="#184CD1"/></linearGradient></defs></svg><svg fill="none" viewBox="0 0 32 32" id="product--product-docs" xmlns="http://www.w3.org/2000/svg"><path d="M6 16V5a1 1 0 011-1h12l7 7v5" stroke="#FBFBFB" stroke-width="2" stroke-linecap="round" stroke-linejoin="round"/><path d="M19 4v7h7M6 25h2a2 2 0 100-4H6v6M27 21h-3.5v6M26.5 24.5h-3M16 27a3 3 0 000-6h-1.75v6H16z" stroke="#FBFBFB" stroke-width="2" stroke-linecap="round" stroke-linejoin="round"/></svg><svg fill="none" viewBox="0 0 38 38" id="product--product-parameter-1" xmlns="http://www.w3.org/2000/svg"><path d="M12.635 6.723l6.48 6.487 6.562-6.487-1.015-1.03-4.82 4.766V.812h-1.448v9.632L13.658 5.7l-1.023 1.023zM37.31 23.418v-1.44H.934v1.44H37.31zm0-8.844H.934v1.448H37.31v-1.448zM25.677 31.27l-6.563-6.48-6.48 6.48 1.024 1.023 4.736-4.737v9.632h1.448v-9.647l4.82 4.76 1.015-1.032z" fill="#FBFBFB"/></svg><svg fill="none" viewBox="0 0 38 38" id="product--product-parameter-2" xmlns="http://www.w3.org/2000/svg"><path d="M13.206 10.55l.977 1.016 4.576-4.782v24.395l-4.576-4.782-.977 1.015 6.236 6.517 6.244-6.517-.977-1.015-4.576 4.782V6.784l4.576 4.782.977-1.016-6.244-6.51-6.236 6.51zM28.925.812H9.827v1.44h19.098V.812zm0 34.928H9.827v1.448h19.098v-1.447z" fill="#FBFBFB"/></svg><svg fill="none" viewBox="0 0 38 38" id="product--product-parameter-3" xmlns="http://www.w3.org/2000/svg"><path d="M37.184 9.906h-1.447v19.097h1.447V9.906zm-3.259 9.475l-6.51-6.236-1.015.97 4.782 4.583H6.779l4.782-4.583-1.015-.97-6.51 6.236 6.51 6.236 1.015-.97-4.782-4.583h24.403L26.4 24.648l1.016.97 6.51-6.237zM2.255 9.906H.808v19.097h1.447V9.906z" fill="#FBFBFB"/></svg><svg fill="none" viewBox="0 0 37 38" id="product--product-parameter-4" xmlns="http://www.w3.org/2000/svg"><path d="M.15.812v36.376h36.376V.812H.149zm18.188 12.516l6.421-6.354-.995-1.01-4.721 4.67v-8.71h16.37v12.74H1.262V1.925h16.37v8.694L12.984 5.97l-1.002 1.002 6.355 6.355zm17.074 2.755v5.835H1.263v-5.835h34.15zm0 7.253v12.739h-16.37v-8.708l4.722 4.662.995-1.01-6.421-6.347-6.355 6.347 1.002 1.002 4.647-4.647v8.7H1.263V23.337h34.15z" fill="#FBFBFB"/></svg><svg fill="none" viewBox="0 0 38 38" id="product--product-parameter-5" xmlns="http://www.w3.org/2000/svg"><g clip-path="url(#bsclip0_1789_19392)" stroke="#FBFBFB" stroke-width="1.364"><path d="M17.526 36.802l1.548-.387 1.548.387m-43.82-.296V1.494h40.43v35.012zm44.074.001V1.495h40.43v35.012zM17.526 1.2l1.548.386 1.548-.387"/></g><defs><clipPath id="bsclip0_1789_19392"><path fill="#fff" transform="translate(.674 .812)" d="M0 0h36.377v36.377H0z"/></clipPath></defs></svg><svg fill="none" viewBox="0 0 38 38" id="product--product-parameter-6" xmlns="http://www.w3.org/2000/svg"><path d="M3.015 14.603V3.266c0-.41.156-.803.436-1.092a1.46 1.46 0 011.052-.453h29.762c.395 0 .774.163 1.053.453.279.29.436.682.436 1.092v11.337c0 16.222-13.263 21.591-15.905 22.499-.3.115-.63.115-.93 0-2.641-.908-15.904-6.277-15.904-22.5z" stroke="#FBFBFB" stroke-width="1.364" stroke-linecap="round" stroke-linejoin="round"/><path d="M19.385 23.39a5.755 5.755 0 100-11.509 5.755 5.755 0 000 11.51zm0-14.578V6.894m-6.245 4.498l-1.352-1.352m-1.228 7.596H8.642m4.498 6.244l-1.352 1.352m7.597 1.228v1.918m6.244-4.498l1.352 1.352m1.228-7.596h1.918m-4.498-6.244l1.352-1.352" stroke="#FBFBFB" stroke-width="1.535" stroke-linecap="round" stroke-linejoin="round"/></svg><svg fill="none" viewBox="0 0 33 26" id="recommend--arrow" xmlns="http://www.w3.org/2000/svg"><path d="M.097 13.329H31.98m0 0C27.4 10.992 18.237 7.48 18.237.658m13.744 12.67C27.398 15.037 18.236 19.179 18.236 26" stroke="#FBFBFB" stroke-width="1.3" stroke-linejoin="bevel"/></svg><svg fill="none" viewBox="0 0 33 26" id="recommend--arrow-active" xmlns="http://www.w3.org/2000/svg"><path d="M.097 13.329H31.98m0 0C27.4 10.992 18.237 7.48 18.237.658m13.744 12.67C27.398 15.037 18.236 19.179 18.236 26" stroke="#B4B9C9" stroke-width="1.3" stroke-linejoin="bevel"/></svg><svg fill="none" viewBox="0 0 52 52" id="service--service1" xmlns="http://www.w3.org/2000/svg"><path d="M39.695 31.42V13.947a1.435 1.435 0 00-.726-1.24L23.374 3.933a1.382 1.382 0 00-1.383 0L6.396 12.706a1.435 1.435 0 00-.726 1.24V31.42a1.436 1.436 0 00.726 1.24l15.595 8.773a1.382 1.382 0 001.383 0l15.595-8.772a1.435 1.435 0 00.726-1.24v0z" stroke="#FBFBFB" stroke-width="2" stroke-linecap="round" stroke-linejoin="round"/><path d="M39.5 13.22l-16.658 9.464-16.977-9.463m16.978 9.463l-.16 18.926" stroke="#FBFBFB" stroke-width="2" stroke-linecap="round" stroke-linejoin="round"/><path d="M0 51.367h52" stroke="url(#bwpaint0_linear_35_13021)"/><defs><linearGradient id="bwpaint0_linear_35_13021" x1="0" y1="51.867" x2="52" y2="51.867" gradientUnits="userSpaceOnUse"><stop stop-color="#22BAFB"/><stop offset=".234" stop-color="#64EEB4"/><stop offset=".547" stop-color="#FFF5DD"/><stop offset=".654" stop-color="#C8F3F9"/><stop offset="1" stop-color="#184CD1"/></linearGradient></defs></svg><svg fill="none" viewBox="0 0 69 52" id="service--service2" xmlns="http://www.w3.org/2000/svg"><path d="M19.139 28.354c5.872 0 10.633-4.76 10.633-10.633 0-5.872-4.76-10.633-10.633-10.633-5.873 0-10.633 4.76-10.633 10.633 0 5.873 4.76 10.633 10.633 10.633z" stroke="#FBFBFB" stroke-width="2" stroke-miterlimit="10"/><path d="M3.934 35.443a19.849 19.849 0 0130.41 0m18.588-30.04a8.96 8.96 0 01-.873 16.935l.883 12.007a3.371 3.371 0 01-6.743 0l.883-12.007a8.96 8.96 0 01-.873-16.935l-.01 8.319 3.372 2.24 3.37-2.24-.01-8.32z" stroke="#FBFBFB" stroke-width="2" stroke-linecap="round" stroke-linejoin="round"/><path d="M0 51.367h52" stroke="url(#bxpaint0_linear_35_13094)"/><defs><linearGradient id="bxpaint0_linear_35_13094" x1="0" y1="51.867" x2="52" y2="51.867" gradientUnits="userSpaceOnUse"><stop stop-color="#22BAFB"/><stop offset=".234" stop-color="#64EEB4"/><stop offset=".547" stop-color="#FFF5DD"/><stop offset=".654" stop-color="#C8F3F9"/><stop offset="1" stop-color="#184CD1"/></linearGradient></defs></svg><svg fill="none" viewBox="0 0 52 52" id="service--service3" xmlns="http://www.w3.org/2000/svg"><path d="M22.684 15.595a5.67 5.67 0 015.67-5.671h11.342a1.417 1.417 0 011.418 1.418v22.683a1.418 1.418 0 01-1.418 1.418H28.355a5.67 5.67 0 00-5.671 5.67" stroke="#FBFBFB" stroke-width="2" stroke-linecap="round" stroke-linejoin="round"/><path d="M4.254 34.025a1.418 1.418 0 001.418 1.418h11.341a5.67 5.67 0 015.671 5.67V15.596a5.67 5.67 0 00-5.67-5.671H5.671a1.418 1.418 0 00-1.418 1.418v22.683z" stroke="#FBFBFB" stroke-width="2" stroke-linecap="round" stroke-linejoin="round"/><path d="M0 51.367h52" stroke="url(#bypaint0_linear_36_13167)"/><defs><linearGradient id="bypaint0_linear_36_13167" x1="0" y1="51.867" x2="52" y2="51.867" gradientUnits="userSpaceOnUse"><stop stop-color="#22BAFB"/><stop offset=".234" stop-color="#64EEB4"/><stop offset=".547" stop-color="#FFF5DD"/><stop offset=".654" stop-color="#C8F3F9"/><stop offset="1" stop-color="#184CD1"/></linearGradient></defs></svg><svg fill="none" viewBox="0 0 52 53" id="service--service4" xmlns="http://www.w3.org/2000/svg"><path d="M31.19 14.544h7.549a1.4 1.4 0 011.311.886l2.481 6.203M2.836 25.886H31.19" stroke="#FBFBFB" stroke-width="2" stroke-linecap="round" stroke-linejoin="round"/><path d="M33.316 38.645a4.253 4.253 0 100-8.506 4.253 4.253 0 000 8.506zm-21.266 0a4.253 4.253 0 100-8.506 4.253 4.253 0 000 8.506z" stroke="#FBFBFB" stroke-width="2" stroke-miterlimit="10"/><path d="M29.064 34.393h-12.76m-8.506-.001H4.254a1.418 1.418 0 01-1.418-1.417V13.127a1.418 1.418 0 011.418-1.418H31.19v18.997m0-9.073h11.34v11.342a1.418 1.418 0 01-1.417 1.417h-3.545" stroke="#FBFBFB" stroke-width="2" stroke-linecap="round" stroke-linejoin="round"/><path d="M0 51.734h52" stroke="url(#bzpaint0_linear_36_13231)"/><defs><linearGradient id="bzpaint0_linear_36_13231" x1="0" y1="52.234" x2="52" y2="52.234" gradientUnits="userSpaceOnUse"><stop stop-color="#22BAFB"/><stop offset=".234" stop-color="#64EEB4"/><stop offset=".547" stop-color="#FFF5DD"/><stop offset=".654" stop-color="#C8F3F9"/><stop offset="1" stop-color="#184CD1"/></linearGradient></defs></svg><svg fill="none" viewBox="0 0 52 53" id="service--service5" xmlns="http://www.w3.org/2000/svg"><path d="M2.836 18.797L22.684 30.14l19.848-11.342L22.684 7.456 2.836 18.797z" stroke="#FBFBFB" stroke-width="2" stroke-linecap="round" stroke-linejoin="round"/><path d="M2.836 25.886l19.848 11.342 19.848-11.342" stroke="#FBFBFB" stroke-width="2" stroke-linecap="round" stroke-linejoin="round"/><path d="M0 51.734h52" stroke="url(#capaint0_linear_36_13340)"/><defs><linearGradient id="capaint0_linear_36_13340" x1="0" y1="52.234" x2="52" y2="52.234" gradientUnits="userSpaceOnUse"><stop stop-color="#22BAFB"/><stop offset=".234" stop-color="#64EEB4"/><stop offset=".547" stop-color="#FFF5DD"/><stop offset=".654" stop-color="#C8F3F9"/><stop offset="1" stop-color="#184CD1"/></linearGradient></defs></svg><svg fill="none" viewBox="0 0 52 53" id="service--service6" xmlns="http://www.w3.org/2000/svg"><path d="M22.684 28.722c6.264 0 11.341-5.078 11.341-11.342S28.948 6.038 22.684 6.038c-6.264 0-11.342 5.078-11.342 11.342s5.078 11.342 11.342 11.342z" stroke="#FBFBFB" stroke-width="2" stroke-miterlimit="10"/><path d="M5.494 38.645a19.848 19.848 0 0134.38 0" stroke="#FBFBFB" stroke-width="2" stroke-linecap="round" stroke-linejoin="round"/><path d="M0 51.734h52" stroke="url(#cbpaint0_linear_36_13404)"/><defs><linearGradient id="cbpaint0_linear_36_13404" x1="0" y1="52.234" x2="52" y2="52.234" gradientUnits="userSpaceOnUse"><stop stop-color="#22BAFB"/><stop offset=".234" stop-color="#64EEB4"/><stop offset=".547" stop-color="#FFF5DD"/><stop offset=".654" stop-color="#C8F3F9"/><stop offset="1" stop-color="#184CD1"/></linearGradient></defs></svg><svg fill="none" viewBox="0 0 52 52" id="service--service7" xmlns="http://www.w3.org/2000/svg"><path d="M38.793 12.582a11.324 11.324 0 01-15.914 14.354v0l-9.942 11.52a4.26 4.26 0 01-6.025-6.026l11.519-9.942A11.324 11.324 0 0132.785 6.574L25.342 14l1.01 5.016 5.016 1.01 7.425-7.443z" stroke="#FBFBFB" stroke-width="2" stroke-linecap="round" stroke-linejoin="round"/><path d="M0 51.367h52" stroke="url(#ccpaint0_linear_36_13468)"/><defs><linearGradient id="ccpaint0_linear_36_13468" x1="0" y1="51.867" x2="52" y2="51.867" gradientUnits="userSpaceOnUse"><stop stop-color="#22BAFB"/><stop offset=".234" stop-color="#64EEB4"/><stop offset=".547" stop-color="#FFF5DD"/><stop offset=".654" stop-color="#C8F3F9"/><stop offset="1" stop-color="#184CD1"/></linearGradient></defs></svg><svg fill="none" viewBox="0 0 52 52" id="service--service8" xmlns="http://www.w3.org/2000/svg"><path d="M22.684 22.684h15.595M22.684 11.342h15.595M22.684 34.025h15.595M16.303 8.506l-6.15 5.671-3.065-2.835m9.215 8.506l-6.15 5.671-3.065-2.835m9.215 8.506l-6.15 5.67-3.065-2.835" stroke="#FBFBFB" stroke-width="2" stroke-linecap="round" stroke-linejoin="round"/><path d="M0 51.367h52" stroke="url(#cdpaint0_linear_36_13523)"/><defs><linearGradient id="cdpaint0_linear_36_13523" x1="0" y1="51.867" x2="52" y2="51.867" gradientUnits="userSpaceOnUse"><stop stop-color="#22BAFB"/><stop offset=".234" stop-color="#64EEB4"/><stop offset=".547" stop-color="#FFF5DD"/><stop offset=".654" stop-color="#C8F3F9"/><stop offset="1" stop-color="#184CD1"/></linearGradient></defs></svg><svg fill="none" viewBox="0 0 82 116" id="unique--img1" xmlns="http://www.w3.org/2000/svg"><path d="M54.994 1.04h-28.34c-14.099 0-25.506 25.365-25.506 56.68 0 31.316 11.407 56.68 25.506 56.68h28.34"/><path d="M54.994 1.04h-28.34c-14.099 0-25.506 25.365-25.506 56.68 0 31.316 11.407 56.68 25.506 56.68h28.34" stroke="#F5F7FA" stroke-width="2" stroke-linecap="round" stroke-linejoin="round"/><path d="M29.488 57.72c0 31.304 11.42 56.68 25.506 56.68 14.087 0 25.506-25.376 25.506-56.68 0-31.303-11.42-56.68-25.506-56.68S29.488 26.418 29.488 57.72zm2.125-22.67H3.273m28.34 45.343H3.497" stroke="#F5F7FA" stroke-width="2" stroke-linecap="round" stroke-linejoin="round"/><path d="M58.758 88.61l-.591-6.721c-2.23 1.477-4.376 2.51-6.438 3.098-2.032.525-3.886.475-5.561-.15l1.022-3.996c1.738.539 3.505.607 5.302.205 1.793-.443 3.9-1.513 6.322-3.21 2.986-2.094 5.162-4.39 6.527-6.89 1.362-2.54 1.938-5.001 1.728-7.383-.17-1.937-.853-3.087-2.047-3.45-1.161-.386-3.016-.05-5.565 1.009l-4.984 2.208c-3.054 1.326-5.389 1.613-7.005.86-1.587-.816-2.513-2.738-2.78-5.765-.198-2.26.072-4.592.811-6.996.74-2.404 1.86-4.69 3.36-6.855a26.187 26.187 0 015.509-5.854L53.776 32l2.688-1.884.596 6.78c1.674-1 3.394-1.67 5.16-2.01 1.8-.361 3.387-.145 4.76.65l-.928 3.864c-1.513-.782-3.116-.987-4.81-.614-1.696.332-3.54 1.196-5.53 2.592-2.655 1.86-4.724 4.168-6.208 6.922-1.45 2.731-2.06 5.408-1.83 8.032.182 2.058.842 3.353 1.98 3.883 1.136.49 2.84.238 5.112-.755l4.94-2.113c3.322-1.472 5.838-1.907 7.547-1.304 1.705.561 2.683 2.275 2.936 5.141.291 3.31-.437 6.648-2.183 10.015-1.747 3.368-4.133 6.282-7.157 8.745l.597 6.781-2.688 1.884z" fill="#F5F7FA"/></svg><svg fill="none" viewBox="0 0 157 197" id="unique--img2" xmlns="http://www.w3.org/2000/svg"><path d="M118.425 17.713L75.722 8.39C54.478 3.752 28.946 38.22 18.645 85.405c-10.301 47.186-1.457 89.158 19.787 93.795l42.703 9.323" fill="#202533"/><path d="M118.425 17.713L75.722 8.39C54.478 3.752 28.946 38.22 18.645 85.405c-10.301 47.186-1.457 89.158 19.787 93.795l42.703 9.323" stroke="#F5F7FA" stroke-width="2" stroke-linecap="round" stroke-linejoin="round"/><path d="M61.348 94.728c-10.297 47.168-1.438 89.162 19.788 93.795 21.225 4.634 46.779-29.847 57.077-77.015 10.297-47.168 1.438-89.161-19.788-93.795C97.2 13.08 71.645 47.56 61.348 94.728z" fill="#202533" stroke="#F5F7FA" stroke-width="2" stroke-linecap="round" stroke-linejoin="round"/><path d="M72.009 61.267l-42.703-9.323m27.787 77.647l-42.366-9.249" stroke="#F5F7FA" stroke-width="2" stroke-linecap="round" stroke-linejoin="round"/><path d="M95.175 151.812l1.32-10.321c-3.847 1.493-7.42 2.343-10.72 2.552-3.235.122-6.012-.564-8.331-2.058l2.855-5.683c2.441 1.383 5.082 2.067 7.921 2.052 2.847-.077 6.375-.996 10.583-2.758 5.188-2.171 9.222-4.916 12.101-8.233 2.887-3.38 4.565-6.898 5.032-10.556.381-2.975-.269-4.932-1.95-5.872-1.622-.963-4.528-1.067-8.717-.311l-8.236 1.688c-5.038.994-8.65.658-10.838-1.008-2.122-1.752-2.886-4.952-2.292-9.601.444-3.472 1.619-6.897 3.524-10.276 1.905-3.379 4.344-6.453 7.317-9.223a40.387 40.387 0 0110.226-7.01l1.319-10.32 4.67-1.955-1.332 10.414c2.851-.958 5.663-1.402 8.436-1.331 2.832.047 5.151.895 6.959 2.543l-2.669 5.518c-2.023-1.676-4.372-2.512-7.046-2.507-2.666-.057-5.728.638-9.187 2.086-4.612 1.93-8.488 4.726-11.63 8.388-3.084 3.638-4.883 7.472-5.399 11.501-.404 3.161.165 5.329 1.706 6.502 1.55 1.112 4.2 1.293 7.951.544l8.138-1.558c5.491-1.125 9.424-.953 11.801.516 2.384 1.408 3.295 4.312 2.733 8.713-.65 5.083-2.845 9.874-6.585 14.373-3.739 4.499-8.293 8.107-13.659 10.823l-1.332 10.414-4.67 1.954z" fill="#F5F7FA"/></svg><svg fill="none" viewBox="0 0 89 89" id="unique--info1" xmlns="http://www.w3.org/2000/svg"><path d="M5.526 35.916l38.678 22.102 38.678-22.102-38.678-22.102L5.526 35.916z" stroke="#FBFBFB" stroke-width="3" stroke-linecap="round" stroke-linejoin="round"/><path d="M5.526 49.73l38.678 22.102L82.882 49.73" stroke="#FBFBFB" stroke-width="3" stroke-linecap="round" stroke-linejoin="round"/></svg><svg fill="none" viewBox="0 0 89 89" id="unique--info2" xmlns="http://www.w3.org/2000/svg"><path d="M42.373 8.944l-27.869 5.56-5.56 27.87a2.763 2.763 0 00.76 2.486l36.054 36.054a2.729 2.729 0 003.902 0L80.914 49.66a2.729 2.729 0 000-3.902L44.86 9.704a2.762 2.762 0 00-2.487-.76v0z" stroke="#FBFBFB" stroke-width="3" stroke-linecap="round" stroke-linejoin="round"/><path d="M29.01 33.153a4.144 4.144 0 100-8.288 4.144 4.144 0 000 8.288z" fill="#FBFBFB"/></svg><svg fill="none" viewBox="0 0 89 89" id="unique--info3" xmlns="http://www.w3.org/2000/svg"><path d="M33.153 58.019c13.733 0 24.866-11.133 24.866-24.865 0-13.733-11.133-24.866-24.866-24.866-13.732 0-24.865 11.133-24.865 24.866 0 13.732 11.133 24.865 24.865 24.865z" stroke="#FBFBFB" stroke-width="3" stroke-linecap="round" stroke-linejoin="round"/><path d="M55.256 80.121c13.733 0 24.865-11.132 24.865-24.865 0-13.733-11.132-24.865-24.865-24.865-13.733 0-24.865 11.132-24.865 24.865 0 13.733 11.132 24.865 24.865 24.865zm-12.95-46.104l12.087 12.087m-20.375-3.798l12.087 12.087" stroke="#FBFBFB" stroke-width="3" stroke-linecap="round" stroke-linejoin="round"/></svg></svg>