<svg width="47" height="47" viewBox="0 0 47 47" fill="none" xmlns="http://www.w3.org/2000/svg">
<path d="M38.9219 18.3594C40.9498 18.3594 42.5938 16.7154 42.5938 14.6875C42.5938 12.6596 40.9498 11.0156 38.9219 11.0156C36.894 11.0156 35.25 12.6596 35.25 14.6875C35.25 16.7154 36.894 18.3594 38.9219 18.3594Z" fill="#25272D" stroke="#FBFBFB" stroke-width="2" stroke-linecap="square" stroke-linejoin="bevel"/>
<path d="M16.1563 26.9883V8.8125C16.1563 7.25435 16.7752 5.76002 17.877 4.65825C18.9788 3.55647 20.4731 2.9375 22.0313 2.9375C23.5894 2.9375 25.0837 3.55647 26.1855 4.65825C27.2873 5.76002 27.9062 7.25435 27.9062 8.8125V26.9883C29.4732 28.2116 30.6192 29.8936 31.1843 31.7995C31.7494 33.7054 31.7054 35.7402 31.0585 37.62C30.4117 39.4997 29.1941 41.1306 27.5758 42.2852C25.9575 43.4397 24.0192 44.0603 22.0313 44.0603C20.0433 44.0603 18.105 43.4397 16.4867 42.2852C14.8684 41.1306 13.6508 39.4997 13.004 37.62C12.3571 35.7402 12.3131 33.7054 12.8782 31.7995C13.4433 29.8936 14.5893 28.2116 16.1563 26.9883Z" fill="#25272D" stroke="#FBFBFB" stroke-width="2" stroke-linecap="square" stroke-linejoin="bevel"/>
<path d="M22.0312 38.1875C24.0592 38.1875 25.7031 36.5435 25.7031 34.5156C25.7031 32.4877 24.0592 30.8438 22.0312 30.8438C20.0033 30.8438 18.3594 32.4877 18.3594 34.5156C18.3594 36.5435 20.0033 38.1875 22.0312 38.1875Z" stroke="#FBFBFB" stroke-width="2" stroke-linecap="square" stroke-linejoin="bevel"/>
<path d="M22.0312 30.8438V16.1562" stroke="#FBFBFB" stroke-width="2" stroke-linecap="square" stroke-linejoin="bevel"/>
</svg>
