<svg width="47" height="47" viewBox="0 0 47 47" fill="none" xmlns="http://www.w3.org/2000/svg">
<path d="M40.1885 13.0345C41.1519 15.2841 41.3878 17.7786 40.863 20.1689C40.3382 22.5591 39.0791 24.7254 37.262 26.3645C35.4448 28.0036 33.1606 29.0334 30.729 29.3098C28.2975 29.5861 25.8404 29.0951 23.7018 27.9056L13.4022 39.8392C12.5744 40.667 11.4517 41.132 10.2811 41.132C9.11044 41.132 7.98775 40.667 7.15999 39.8392C6.33222 39.0114 5.86719 37.8888 5.86719 36.7181C5.86719 35.5475 6.33222 34.4248 7.15999 33.597L19.0936 23.2974C17.9041 21.1588 17.4131 18.7017 17.6894 16.2702C17.9658 13.8386 18.9956 11.5544 20.6347 9.73723C22.2738 7.92007 24.4401 6.66096 26.8303 6.13619C29.2206 5.61142 31.7151 5.84726 33.9647 6.8107L26.2537 14.5033L27.3002 19.699L32.4959 20.7455L40.1885 13.0345Z" stroke="#FBFBFB" stroke-width="2" stroke-linecap="square" stroke-linejoin="bevel"/>
</svg>
