<svg width="52" height="52" viewBox="0 0 52 52" fill="none" xmlns="http://www.w3.org/2000/svg">
<path d="M22.6836 15.5947C22.6836 14.0907 23.2811 12.6483 24.3446 11.5848C25.4081 10.5213 26.8505 9.92383 28.3545 9.92383H39.6963C40.0723 9.92383 40.4329 10.0732 40.6987 10.3391C40.9646 10.6049 41.114 10.9655 41.114 11.3415V34.0251C41.114 34.4011 40.9646 34.7617 40.6987 35.0276C40.4329 35.2934 40.0723 35.4428 39.6963 35.4428H28.3545C26.8505 35.4428 25.4081 36.0403 24.3446 37.1038C23.2811 38.1673 22.6836 39.6097 22.6836 41.1137" stroke="#FBFBFB" stroke-width="2" stroke-linecap="round" stroke-linejoin="round"/>
<path d="M4.25391 34.0251C4.25391 34.4011 4.40327 34.7617 4.66915 35.0276C4.93502 35.2934 5.29562 35.4428 5.67163 35.4428H17.0134C18.5174 35.4428 19.9598 36.0403 21.0233 37.1038C22.0868 38.1673 22.6843 39.6097 22.6843 41.1137V15.5947C22.6843 14.0907 22.0868 12.6483 21.0233 11.5848C19.9598 10.5213 18.5174 9.92383 17.0134 9.92383H5.67163C5.29562 9.92383 4.93502 10.0732 4.66915 10.3391C4.40327 10.6049 4.25391 10.9655 4.25391 11.3415V34.0251Z" stroke="#FBFBFB" stroke-width="2" stroke-linecap="round" stroke-linejoin="round"/>
<path d="M0 51.3672H52" stroke="url(#paint0_linear_36_13167)"/>
<defs>
<linearGradient id="paint0_linear_36_13167" x1="2.90573e-07" y1="51.8672" x2="52" y2="51.8672" gradientUnits="userSpaceOnUse">
<stop stop-color="#22BAFB"/>
<stop offset="0.234375" stop-color="#64EEB4"/>
<stop offset="0.546875" stop-color="#FFF5DD"/>
<stop offset="0.653646" stop-color="#C8F3F9"/>
<stop offset="1" stop-color="#184CD1"/>
</linearGradient>
</defs>
</svg>
