<svg width="52" height="52" viewBox="0 0 52 52" fill="none" xmlns="http://www.w3.org/2000/svg">
<path d="M38.793 12.5818C39.7229 14.7532 39.9506 17.161 39.444 19.4682C38.9375 21.7754 37.7221 23.8665 35.9681 25.4486C34.2141 27.0308 32.0092 28.0248 29.6621 28.2915C27.3151 28.5583 24.9434 28.0844 22.879 26.9362V26.9362L12.9373 38.4552C12.1383 39.2542 11.0546 39.7031 9.9246 39.7031C8.79464 39.7031 7.71095 39.2542 6.91195 38.4552C6.11294 37.6562 5.66406 36.5725 5.66406 35.4425C5.66406 34.3126 6.11294 33.2289 6.91195 32.4299L18.4309 22.4881C17.2827 20.4238 16.8088 18.052 17.0756 15.705C17.3423 13.3579 18.3363 11.1531 19.9185 9.39903C21.5006 7.645 23.5917 6.42964 25.8989 5.9231C28.2061 5.41656 30.614 5.64421 32.7854 6.57417L25.3423 13.9995L26.3525 19.0147L31.3676 20.0248L38.793 12.5818Z" stroke="#FBFBFB" stroke-width="2" stroke-linecap="round" stroke-linejoin="round"/>
<path d="M0 51.3672H52" stroke="url(#paint0_linear_36_13468)"/>
<defs>
<linearGradient id="paint0_linear_36_13468" x1="2.90573e-07" y1="51.8672" x2="52" y2="51.8672" gradientUnits="userSpaceOnUse">
<stop stop-color="#22BAFB"/>
<stop offset="0.234375" stop-color="#64EEB4"/>
<stop offset="0.546875" stop-color="#FFF5DD"/>
<stop offset="0.653646" stop-color="#C8F3F9"/>
<stop offset="1" stop-color="#184CD1"/>
</linearGradient>
</defs>
</svg>
