<svg width="69" height="52" viewBox="0 0 69 52" fill="none" xmlns="http://www.w3.org/2000/svg">
<path d="M19.1388 28.3542C25.0112 28.3542 29.7717 23.5937 29.7717 17.7213C29.7717 11.8489 25.0112 7.08838 19.1388 7.08838C13.2664 7.08838 8.50586 11.8489 8.50586 17.7213C8.50586 23.5937 13.2664 28.3542 19.1388 28.3542Z" stroke="#FBFBFB" stroke-width="2" stroke-miterlimit="10"/>
<path d="M3.93359 35.4432C5.79658 33.2228 8.12326 31.4373 10.7501 30.2123C13.377 28.9873 16.2402 28.3525 19.1387 28.3525C22.0371 28.3525 24.9004 28.9873 27.5272 30.2123C30.1541 31.4373 32.4807 33.2228 34.3437 35.4432" stroke="#FBFBFB" stroke-width="2" stroke-linecap="round" stroke-linejoin="round"/>
<path d="M52.9318 5.40284C54.667 6.09742 56.1415 7.31724 57.149 8.89152C58.1565 10.4658 58.6464 12.3157 58.5503 14.1823C58.4541 16.0489 57.7766 17.8386 56.6127 19.3011C55.4488 20.7635 53.8567 21.8253 52.0593 22.3378L52.9417 34.3451C52.9417 35.2391 52.5865 36.0966 51.9543 36.7288C51.3221 37.361 50.4647 37.7162 49.5706 37.7162C48.6765 37.7162 47.819 37.361 47.1868 36.7288C46.5546 36.0966 46.1994 35.2391 46.1994 34.3451L47.0819 22.3379C45.2845 21.8253 43.6924 20.7635 42.5284 19.3011C41.3645 17.8386 40.687 16.0489 40.5909 14.1823C40.4947 12.3157 40.9847 10.4658 41.9921 8.89152C42.9996 7.31724 44.4741 6.09742 46.2093 5.40284L46.1994 13.7216L49.5706 15.9624L52.9417 13.7216L52.9318 5.40284Z" stroke="#FBFBFB" stroke-width="2" stroke-linecap="round" stroke-linejoin="round"/>
<path d="M0 51.3672H52" stroke="url(#paint0_linear_35_13094)"/>
<defs>
<linearGradient id="paint0_linear_35_13094" x1="2.90573e-07" y1="51.8672" x2="52" y2="51.8672" gradientUnits="userSpaceOnUse">
<stop stop-color="#22BAFB"/>
<stop offset="0.234375" stop-color="#64EEB4"/>
<stop offset="0.546875" stop-color="#FFF5DD"/>
<stop offset="0.653646" stop-color="#C8F3F9"/>
<stop offset="1" stop-color="#184CD1"/>
</linearGradient>
</defs>
</svg>
