<svg viewBox="0 0 331 262" xmlns="http://www.w3.org/2000/svg" xmlns:xlink="http://www.w3.org/1999/xlink"><style>:root&gt;svg{display:none}:root&gt;svg:target{display:block}</style><svg fill="none" viewBox="0 0 331 146" id="header--banner--button" xmlns="http://www.w3.org/2000/svg"><path d="M329.535 42.297c1.627 8.664-1.224 17.849-7.986 27.094-6.763 9.247-17.385 18.472-31.108 27.142-27.44 17.337-67.097 32.341-112.464 40.856-45.368 8.516-87.766 8.915-119.625 2.709-15.933-3.104-29.177-7.849-38.833-14.014-9.655-6.164-15.642-13.69-17.268-22.354-1.626-8.664 1.224-17.849 7.986-27.094C17 67.389 27.622 58.164 41.345 49.494c27.44-17.337 67.097-32.34 112.464-40.856C199.177.122 241.575-.277 273.434 5.929c15.933 3.104 29.177 7.85 38.834 14.014 9.654 6.164 15.641 13.69 17.267 22.354z" stroke="url(#aapaint0_linear_7_68)" stroke-width="2"/><defs><linearGradient id="aapaint0_linear_7_68" x1="1.268" y1="103.914" x2="330.518" y2="42.113" gradientUnits="userSpaceOnUse"><stop stop-color="#22BAFB"/><stop offset=".234" stop-color="#64EEB4"/><stop offset=".547" stop-color="#FFF5DD"/><stop offset=".654" stop-color="#C8F3F9"/><stop offset="1" stop-color="#184CD1"/></linearGradient></defs></svg><svg fill="none" viewBox="0 0 331 146" id="header--banner--submit" xmlns="http://www.w3.org/2000/svg"><path d="M329.535 42.297c1.627 8.664-1.224 17.849-7.986 27.094-6.763 9.247-17.385 18.472-31.108 27.142-27.44 17.337-67.097 32.341-112.464 40.856-45.368 8.516-87.766 8.915-119.625 2.709-15.933-3.104-29.177-7.849-38.833-14.014-9.655-6.164-15.642-13.69-17.268-22.354-1.626-8.664 1.224-17.849 7.986-27.094C17 67.389 27.622 58.164 41.345 49.494c27.44-17.337 67.097-32.34 112.464-40.856C199.177.122 241.575-.277 273.434 5.929c15.933 3.104 29.177 7.85 38.834 14.014 9.654 6.164 15.641 13.69 17.267 22.354z" stroke="url(#abpaint0_linear_2_36)" stroke-width="2"/><defs><linearGradient id="abpaint0_linear_2_36" x1="1.268" y1="103.914" x2="330.518" y2="42.113" gradientUnits="userSpaceOnUse"><stop stop-color="#22BAFB"/><stop offset=".234" stop-color="#64EEB4"/><stop offset=".547" stop-color="#FFF5DD"/><stop offset=".654" stop-color="#C8F3F9"/><stop offset="1" stop-color="#184CD1"/></linearGradient></defs></svg><svg fill="none" viewBox="0 0 3 10" id="header--nav--Icon" xmlns="http://www.w3.org/2000/svg"><path d="M0 5c0 .69.672 1.25 1.5 1.25S3 5.69 3 5s-.672-1.25-1.5-1.25S0 4.31 0 5zm0-3.75C0 1.94.672 2.5 1.5 2.5S3 1.94 3 1.25 2.328 0 1.5 0 0 .56 0 1.25zm0 7.5C0 9.44.672 10 1.5 10S3 9.44 3 8.75 2.328 7.5 1.5 7.5 0 8.06 0 8.75z" fill="#FBFBFB"/></svg><svg fill="none" viewBox="0 0 219 55" id="header--top--logo" xmlns="http://www.w3.org/2000/svg"><path d="M47.96 48.28s30.401-8.99 58.466-3.509c24.221 4.73 64.429-1.557 64.429-1.557s-38.885 17.064-64.698 10.127c-26.88-7.224-58.198-5.061-58.198-5.061z" fill="#184CD1"/><path d="M13.985 39.415c-7.553 0-11.329-2.435-11.329-7.304V19.33c0-5.146 3.776-7.719 11.33-7.719 2.572 0 5.034.263 7.386.789v2.988c-2.656-.664-5.09-.996-7.304-.996-1.079 0-2.02.069-2.822.207a9.612 9.612 0 00-2.324.623c-1.604.691-2.407 2.047-2.407 4.067v12.616c0 3.098 2.573 4.647 7.72 4.647 2.213 0 4.647-.332 7.303-.995v3.07c-2.352.526-4.87.789-7.553.789zM26.661 9.95h3.735V39h-3.735V9.95zm17.185 29.465c-2.573 0-4.385-.456-5.436-1.37-1.024-.94-1.536-2.406-1.536-4.398V18.914h3.735V33.44c0 .526.042.955.125 1.287.11.304.29.622.54.954.497.72 1.714 1.079 3.651 1.079 2.047 0 3.486-.194 4.316-.581.802-.387 1.203-1.093 1.203-2.116V18.914h3.735V39h-3.735v-2.449c-.36 1.91-2.559 2.864-6.598 2.864zm22.96 0c-2.131 0-4.427-.166-6.89-.498v-2.864c3.237.526 5.561.789 6.972.789 1.77 0 3.043-.166 3.818-.498.775-.36 1.162-1.01 1.162-1.95V32.36c0-.858-.29-1.466-.871-1.826-.581-.36-1.522-.54-2.822-.54h-2.283c-2.075 0-3.665-.428-4.772-1.286-1.08-.857-1.619-2.061-1.619-3.61V23.23c0-3.154 2.988-4.73 8.964-4.73.443 0 2.476.11 6.1.331v2.698c-2.462-.388-4.55-.581-6.266-.581-1.964 0-3.306.193-4.025.58-.72.388-1.08 1.038-1.08 1.951v1.702c0 1.355 1.232 2.033 3.694 2.033h2.324c4.233 0 6.35 1.577 6.35 4.731v1.743c0 2.075-.72 3.555-2.158 4.44-1.439.858-3.638 1.287-6.599 1.287zm22.342 0c-1.715 0-3.057-.18-4.025-.54-.968-.387-1.674-1.023-2.117-1.908-.415-.913-.622-2.186-.622-3.818V21.363h-4.482v-2.449h4.482V12.69h3.776v6.225h7.18v2.449h-7.18v11.993c0 .996.111 1.743.333 2.241.249.498.663.858 1.245 1.079.608.194 1.48.29 2.614.29.36 0 1.356-.11 2.988-.331v2.448a27.018 27.018 0 01-4.192.332zm16.739 0c-6.142 0-9.213-2.047-9.213-6.142v-7.926c0-2.435.692-4.178 2.075-5.23 1.411-1.078 3.68-1.618 6.806-1.618 2.96 0 5.091.512 6.391 1.536 1.328 1.023 1.992 2.794 1.992 5.312v4.44h-13.487v3.03c0 1.383.484 2.379 1.452 2.987.968.61 2.462.913 4.482.913 1.909 0 4.164-.331 6.764-.995v2.863c-2.545.553-4.966.83-7.262.83zm4.316-12.076v-3.154c0-1.218-.374-2.048-1.121-2.49-.719-.47-1.964-.706-3.735-.706-1.715 0-2.96.235-3.734.706-.775.442-1.162 1.272-1.162 2.49v3.154h9.752zm9.427-8.425h3.527v3.279c0-.637.277-1.231.83-1.785.554-.58 1.259-1.037 2.117-1.37.857-.359 1.701-.539 2.531-.539h1.826v3.196h-2.075c-1.771 0-3.057.235-3.859.705-.775.443-1.162 1.26-1.162 2.449V39h-3.735V18.914zm16.333 2.449h-4.606v-2.449h4.606v-3.237c0-2.296.498-3.887 1.494-4.772 1.024-.913 2.739-1.37 5.146-1.37 1.494 0 2.891.07 4.192.208v2.407a21.88 21.88 0 00-2.822-.208c-1.19 0-2.089.097-2.698.29-.581.195-.996.54-1.245 1.038-.221.47-.332 1.19-.332 2.158v3.486h7.097v2.449h-7.097V39h-3.735V21.363zM149.534 9.95h3.735V39h-3.735V9.95zm18.725 29.465c-1.771 0-3.099-.07-3.984-.207a8.813 8.813 0 01-2.656-.789 3.888 3.888 0 01-1.992-1.992c-.415-.94-.623-2.2-.623-3.776v-6.972c0-1.245.152-2.338.457-3.279.304-.94.705-1.674 1.203-2.2.415-.47 1.038-.83 1.868-1.078a12.192 12.192 0 012.614-.54 56.215 56.215 0 013.113-.083c1.438 0 2.517.042 3.237.125.747.055 1.535.194 2.365.415.858.249 1.522.622 1.992 1.12.47.498.871 1.218 1.203 2.158.305.969.457 2.09.457 3.362v6.972c0 2.351-.54 4.066-1.619 5.145-.442.443-1.079.789-1.909 1.038-.829.249-1.687.415-2.572.498a60.063 60.063 0 01-3.154.083zm0-2.448c1.162 0 2.005-.028 2.531-.084a4.455 4.455 0 001.536-.456 1.894 1.894 0 001.037-1.079c.221-.526.332-1.245.332-2.158v-8.134c0-1.245-.152-2.144-.456-2.697-.305-.581-.83-.955-1.577-1.12-.72-.194-1.854-.291-3.403-.291-1.55 0-2.698.097-3.445.29-.719.166-1.231.54-1.535 1.12-.305.554-.457 1.453-.457 2.698v8.134c0 .913.097 1.632.291 2.158.221.498.581.858 1.079 1.079a4.45 4.45 0 001.535.456c.526.056 1.37.084 2.532.084zm23.586 2.448c-1.771 0-3.098-.07-3.984-.207a8.83 8.83 0 01-2.656-.789 3.888 3.888 0 01-1.992-1.992c-.415-.94-.622-2.2-.622-3.776v-6.972c0-1.245.152-2.338.456-3.279.305-.94.706-1.674 1.204-2.2.415-.47 1.037-.83 1.867-1.078a12.2 12.2 0 012.615-.54 56.178 56.178 0 013.112-.083c1.439 0 2.518.042 3.237.125.747.055 1.536.194 2.366.415.857.249 1.521.622 1.992 1.12.47.498.871 1.218 1.203 2.158.304.969.457 2.09.457 3.362v6.972c0 2.351-.54 4.066-1.619 5.145-.443.443-1.079.789-1.909 1.038-.83.249-1.688.415-2.573.498a60.035 60.035 0 01-3.154.083zm0-2.448c1.162 0 2.006-.028 2.532-.084a4.457 4.457 0 001.535-.456 1.896 1.896 0 001.038-1.079c.221-.526.332-1.245.332-2.158v-8.134c0-1.245-.153-2.144-.457-2.697-.304-.581-.83-.955-1.577-1.12-.719-.194-1.854-.291-3.403-.291s-2.697.097-3.444.29c-.72.166-1.231.54-1.536 1.12-.304.554-.456 1.453-.456 2.698v8.134c0 .913.097 1.632.29 2.158a2.06 2.06 0 001.079 1.079c.498.249 1.01.401 1.536.456.525.056 1.369.084 2.531.084zm15.079-18.053h3.528v3.279c0-.637.276-1.231.83-1.785.553-.58 1.259-1.037 2.116-1.37.858-.359 1.702-.539 2.532-.539h1.826v3.196h-2.075c-1.771 0-3.057.235-3.86.705-.774.443-1.162 1.26-1.162 2.449V39h-3.735V18.914z" fill="#FBFBFB"/></svg><svg fill="none" viewBox="0 0 32 32" id="header--top--search" xmlns="http://www.w3.org/2000/svg"><path d="M14.488 25c5.794 0 10.49-4.701 10.49-10.5S20.283 4 14.489 4C8.694 4 3.997 8.701 3.997 14.5S8.694 25 14.487 25zm7.418-3.075L27.976 28" stroke="#FBFBFB" stroke-linecap="round" stroke-linejoin="round"/></svg><svg fill="none" viewBox="0 0 24 24" id="header--top--tg" xmlns="http://www.w3.org/2000/svg"><path d="M12 24c6.627 0 12-5.373 12-12S18.627 0 12 0 0 5.373 0 12s5.373 12 12 12z" fill="#2AABEE"/><path fill-rule="evenodd" clip-rule="evenodd" d="M5.432 11.873c3.498-1.524 5.83-2.529 6.998-3.014 3.333-1.386 4.025-1.627 4.476-1.635.1-.002.322.023.465.14a.506.506 0 01.171.325c.016.093.036.306.02.472-.18 1.898-.962 6.502-1.36 8.627-.168.9-.499 1.201-.82 1.23-.696.065-1.225-.46-1.9-.902-1.056-.693-1.653-1.124-2.678-1.8-1.185-.78-.417-1.21.258-1.91.177-.184 3.247-2.977 3.307-3.23.007-.032.014-.15-.056-.212-.07-.063-.174-.041-.249-.024-.106.024-1.793 1.139-5.061 3.345-.48.33-.913.49-1.302.481-.428-.01-1.252-.242-1.865-.441-.752-.245-1.349-.374-1.297-.789.027-.216.325-.437.893-.663z" fill="#fff"/></svg><svg fill="none" viewBox="0 0 24 24" id="header--top--whatsapp" xmlns="http://www.w3.org/2000/svg"><path d="M24 12c0 6.628-5.372 12-12 12-6.627 0-12-5.372-12-12S5.373 0 12 0c6.628 0 12 5.372 12 12z" fill="#3CBA64"/><path d="M9.455 16.386c.097.047.237.141.237.141.867.517 1.854.79 2.853.79a5.596 5.596 0 005.59-5.589 5.596 5.596 0 00-5.59-5.59 5.597 5.597 0 00-5.59 5.59c0 1.018.283 2.02.818 2.898 0 0 .097.14.145.238.27.541-.962 1.663-.558 2.084.354.37 1.56-.823 2.095-.562zm-3.938 2.405c-.342-.524 1-3.734 1-3.734a6.872 6.872 0 01-.864-3.329 6.9 6.9 0 016.892-6.893 6.9 6.9 0 016.893 6.893 6.9 6.9 0 01-6.893 6.893 6.882 6.882 0 01-3.276-.836s-3.41 1.53-3.752 1.006z" fill="#fff"/><path fill-rule="evenodd" clip-rule="evenodd" d="M15.11 12.687c-.284-.17-.653-.36-.987-.223-.257.105-.42.506-.587.712-.086.104-.187.12-.318.069a4.474 4.474 0 01-2.231-1.912c-.09-.138-.074-.246.034-.373.16-.19.362-.405.406-.658.043-.255-.076-.553-.182-.78-.134-.29-.284-.702-.574-.867-.267-.15-.618-.065-.856.128-.41.334-.608.857-.602 1.376.001.147.02.295.054.437a3.6 3.6 0 00.419.966c.134.229.28.45.437.665a6.76 6.76 0 001.897 1.76c.37.227.77.427 1.183.563.464.153.877.313 1.377.217.524-.099 1.04-.423 1.249-.928a.809.809 0 00.058-.474c-.071-.326-.514-.52-.778-.678" fill="#fff"/></svg><svg data-name="Слой 1" viewBox="0 0 262 262" id="peculiar--bubble" xmlns="http://www.w3.org/2000/svg"><defs><linearGradient id="aha" x1="-434" y1="236" x2="-176" y2="236" gradientTransform="matrix(1 0 0 -1 436 367)" gradientUnits="userSpaceOnUse"><stop offset="0" stop-color="#22bafb"/><stop offset=".23" stop-color="#64eeb4"/><stop offset=".55" stop-color="#fff5dd"/><stop offset=".65" stop-color="#c8f3f9"/><stop offset="1" stop-color="#184cd1"/></linearGradient></defs><circle cx="131" cy="131" r="130" fill="#25272d" stroke-width="2" stroke="url(#aha)"/></svg><svg fill="none" viewBox="0 0 47 47" id="peculiar--bubble1" xmlns="http://www.w3.org/2000/svg"><path d="M38.188 26.438c0-13.22-14.688-23.5-14.688-23.5s-14.688 10.28-14.688 23.5a14.687 14.687 0 1029.376 0z" fill="#25272D" stroke="#FBFBFB" stroke-width="2" stroke-linecap="round" stroke-linejoin="bevel"/><path d="M24.986 35.103a8.794 8.794 0 007.197-7.178" stroke="#FBFBFB" stroke-width="2" stroke-linecap="round" stroke-linejoin="bevel"/></svg><svg fill="none" viewBox="0 0 47 47" id="peculiar--bubble2" xmlns="http://www.w3.org/2000/svg"><path d="M40.188 13.034a11.732 11.732 0 01-16.486 14.872l-10.3 11.933a4.414 4.414 0 01-6.242-6.242l11.934-10.3a11.732 11.732 0 0114.87-16.486l-7.71 7.692L27.3 19.7l5.196 1.046 7.692-7.71z" stroke="#FBFBFB" stroke-width="2" stroke-linecap="square" stroke-linejoin="bevel"/></svg><svg fill="none" viewBox="0 0 47 47" id="peculiar--bubble3" xmlns="http://www.w3.org/2000/svg"><path d="M11.75 35.25C2.936 20.563 14.686 5.875 39.654 7.344c1.47 24.969-13.218 36.719-27.906 27.906z" fill="#25272D" stroke="#FBFBFB" stroke-width="2" stroke-linecap="square" stroke-linejoin="bevel"/><path d="M29.375 17.625L7.344 39.656" stroke="#FBFBFB" stroke-width="2" stroke-linecap="square" stroke-linejoin="bevel"/></svg><svg fill="none" viewBox="0 0 47 47" id="peculiar--bubble4" xmlns="http://www.w3.org/2000/svg"><path d="M7.344 21.058V10.281a1.469 1.469 0 011.468-1.469h29.376a1.469 1.469 0 011.468 1.47v10.776c0 15.422-13.09 20.526-15.697 21.389-.296.11-.622.11-.918 0-2.607-.863-15.697-5.967-15.697-21.389z" fill="#25272D" stroke="#FBFBFB" stroke-width="2" stroke-linecap="square" stroke-linejoin="bevel"/></svg><svg fill="none" viewBox="0 0 47 47" id="peculiar--bubble5" xmlns="http://www.w3.org/2000/svg"><path d="M38.922 18.36a3.672 3.672 0 100-7.344 3.672 3.672 0 000 7.343zm-22.766 8.628V8.813a5.875 5.875 0 1111.75 0v18.175a9.546 9.546 0 11-11.75 0z" fill="#25272D" stroke="#FBFBFB" stroke-width="2" stroke-linecap="square" stroke-linejoin="bevel"/><path d="M22.031 38.188a3.672 3.672 0 100-7.344 3.672 3.672 0 000 7.343zm0-7.344V16.156" stroke="#FBFBFB" stroke-width="2" stroke-linecap="square" stroke-linejoin="bevel"/></svg><svg fill="none" viewBox="0 0 47 47" id="peculiar--bubble6" xmlns="http://www.w3.org/2000/svg"><path d="M23.5 41.125c9.734 0 17.625-7.891 17.625-17.625S33.234 5.875 23.5 5.875 5.875 13.766 5.875 23.5 13.766 41.125 23.5 41.125z" fill="#25272D" stroke="#FBFBFB" stroke-width="2" stroke-miterlimit="10" stroke-linecap="square" stroke-linejoin="bevel"/><path d="M23.5 13.219V23.5h10.281" fill="#25272D"/><path d="M23.5 13.219V23.5h10.281" stroke="#FBFBFB" stroke-width="2" stroke-linecap="square" stroke-linejoin="bevel"/></svg><svg fill="none" viewBox="0 0 33 26" id="recommend--arrow" xmlns="http://www.w3.org/2000/svg"><path d="M.097 13.329H31.98m0 0C27.4 10.992 18.237 7.48 18.237.658m13.744 12.67C27.398 15.037 18.236 19.179 18.236 26" stroke="#FBFBFB" stroke-width="1.3" stroke-linejoin="bevel"/></svg><svg fill="none" viewBox="0 0 52 52" id="service--service1" xmlns="http://www.w3.org/2000/svg"><path d="M39.695 31.42V13.947a1.435 1.435 0 00-.726-1.24L23.374 3.933a1.382 1.382 0 00-1.383 0L6.396 12.706a1.435 1.435 0 00-.726 1.24V31.42a1.436 1.436 0 00.726 1.24l15.595 8.773a1.382 1.382 0 001.383 0l15.595-8.772a1.435 1.435 0 00.726-1.24v0z" stroke="#FBFBFB" stroke-width="2" stroke-linecap="round" stroke-linejoin="round"/><path d="M39.5 13.22l-16.658 9.464-16.977-9.463m16.978 9.463l-.16 18.926" stroke="#FBFBFB" stroke-width="2" stroke-linecap="round" stroke-linejoin="round"/><path d="M0 51.367h52" stroke="url(#appaint0_linear_35_13021)"/><defs><linearGradient id="appaint0_linear_35_13021" x1="0" y1="51.867" x2="52" y2="51.867" gradientUnits="userSpaceOnUse"><stop stop-color="#22BAFB"/><stop offset=".234" stop-color="#64EEB4"/><stop offset=".547" stop-color="#FFF5DD"/><stop offset=".654" stop-color="#C8F3F9"/><stop offset="1" stop-color="#184CD1"/></linearGradient></defs></svg><svg fill="none" viewBox="0 0 69 52" id="service--service2" xmlns="http://www.w3.org/2000/svg"><path d="M19.139 28.354c5.872 0 10.633-4.76 10.633-10.633 0-5.872-4.76-10.633-10.633-10.633-5.873 0-10.633 4.76-10.633 10.633 0 5.873 4.76 10.633 10.633 10.633z" stroke="#FBFBFB" stroke-width="2" stroke-miterlimit="10"/><path d="M3.934 35.443a19.849 19.849 0 0130.41 0m18.588-30.04a8.96 8.96 0 01-.873 16.935l.883 12.007a3.371 3.371 0 01-6.743 0l.883-12.007a8.96 8.96 0 01-.873-16.935l-.01 8.319 3.372 2.24 3.37-2.24-.01-8.32z" stroke="#FBFBFB" stroke-width="2" stroke-linecap="round" stroke-linejoin="round"/><path d="M0 51.367h52" stroke="url(#aqpaint0_linear_35_13094)"/><defs><linearGradient id="aqpaint0_linear_35_13094" x1="0" y1="51.867" x2="52" y2="51.867" gradientUnits="userSpaceOnUse"><stop stop-color="#22BAFB"/><stop offset=".234" stop-color="#64EEB4"/><stop offset=".547" stop-color="#FFF5DD"/><stop offset=".654" stop-color="#C8F3F9"/><stop offset="1" stop-color="#184CD1"/></linearGradient></defs></svg><svg fill="none" viewBox="0 0 52 52" id="service--service3" xmlns="http://www.w3.org/2000/svg"><path d="M22.684 15.595a5.67 5.67 0 015.67-5.671h11.342a1.417 1.417 0 011.418 1.418v22.683a1.418 1.418 0 01-1.418 1.418H28.355a5.67 5.67 0 00-5.671 5.67" stroke="#FBFBFB" stroke-width="2" stroke-linecap="round" stroke-linejoin="round"/><path d="M4.254 34.025a1.418 1.418 0 001.418 1.418h11.341a5.67 5.67 0 015.671 5.67V15.596a5.67 5.67 0 00-5.67-5.671H5.671a1.418 1.418 0 00-1.418 1.418v22.683z" stroke="#FBFBFB" stroke-width="2" stroke-linecap="round" stroke-linejoin="round"/><path d="M0 51.367h52" stroke="url(#arpaint0_linear_36_13167)"/><defs><linearGradient id="arpaint0_linear_36_13167" x1="0" y1="51.867" x2="52" y2="51.867" gradientUnits="userSpaceOnUse"><stop stop-color="#22BAFB"/><stop offset=".234" stop-color="#64EEB4"/><stop offset=".547" stop-color="#FFF5DD"/><stop offset=".654" stop-color="#C8F3F9"/><stop offset="1" stop-color="#184CD1"/></linearGradient></defs></svg><svg fill="none" viewBox="0 0 52 53" id="service--service4" xmlns="http://www.w3.org/2000/svg"><path d="M31.19 14.544h7.549a1.4 1.4 0 011.311.886l2.481 6.203M2.836 25.886H31.19" stroke="#FBFBFB" stroke-width="2" stroke-linecap="round" stroke-linejoin="round"/><path d="M33.316 38.645a4.253 4.253 0 100-8.506 4.253 4.253 0 000 8.506zm-21.266 0a4.253 4.253 0 100-8.506 4.253 4.253 0 000 8.506z" stroke="#FBFBFB" stroke-width="2" stroke-miterlimit="10"/><path d="M29.064 34.393h-12.76m-8.506-.001H4.254a1.418 1.418 0 01-1.418-1.417V13.127a1.418 1.418 0 011.418-1.418H31.19v18.997m0-9.073h11.34v11.342a1.418 1.418 0 01-1.417 1.417h-3.545" stroke="#FBFBFB" stroke-width="2" stroke-linecap="round" stroke-linejoin="round"/><path d="M0 51.734h52" stroke="url(#aspaint0_linear_36_13231)"/><defs><linearGradient id="aspaint0_linear_36_13231" x1="0" y1="52.234" x2="52" y2="52.234" gradientUnits="userSpaceOnUse"><stop stop-color="#22BAFB"/><stop offset=".234" stop-color="#64EEB4"/><stop offset=".547" stop-color="#FFF5DD"/><stop offset=".654" stop-color="#C8F3F9"/><stop offset="1" stop-color="#184CD1"/></linearGradient></defs></svg><svg fill="none" viewBox="0 0 52 53" id="service--service5" xmlns="http://www.w3.org/2000/svg"><path d="M2.836 18.797L22.684 30.14l19.848-11.342L22.684 7.456 2.836 18.797z" stroke="#FBFBFB" stroke-width="2" stroke-linecap="round" stroke-linejoin="round"/><path d="M2.836 25.886l19.848 11.342 19.848-11.342" stroke="#FBFBFB" stroke-width="2" stroke-linecap="round" stroke-linejoin="round"/><path d="M0 51.734h52" stroke="url(#atpaint0_linear_36_13340)"/><defs><linearGradient id="atpaint0_linear_36_13340" x1="0" y1="52.234" x2="52" y2="52.234" gradientUnits="userSpaceOnUse"><stop stop-color="#22BAFB"/><stop offset=".234" stop-color="#64EEB4"/><stop offset=".547" stop-color="#FFF5DD"/><stop offset=".654" stop-color="#C8F3F9"/><stop offset="1" stop-color="#184CD1"/></linearGradient></defs></svg><svg fill="none" viewBox="0 0 52 53" id="service--service6" xmlns="http://www.w3.org/2000/svg"><path d="M22.684 28.722c6.264 0 11.341-5.078 11.341-11.342S28.948 6.038 22.684 6.038c-6.264 0-11.342 5.078-11.342 11.342s5.078 11.342 11.342 11.342z" stroke="#FBFBFB" stroke-width="2" stroke-miterlimit="10"/><path d="M5.494 38.645a19.848 19.848 0 0134.38 0" stroke="#FBFBFB" stroke-width="2" stroke-linecap="round" stroke-linejoin="round"/><path d="M0 51.734h52" stroke="url(#aupaint0_linear_36_13404)"/><defs><linearGradient id="aupaint0_linear_36_13404" x1="0" y1="52.234" x2="52" y2="52.234" gradientUnits="userSpaceOnUse"><stop stop-color="#22BAFB"/><stop offset=".234" stop-color="#64EEB4"/><stop offset=".547" stop-color="#FFF5DD"/><stop offset=".654" stop-color="#C8F3F9"/><stop offset="1" stop-color="#184CD1"/></linearGradient></defs></svg><svg fill="none" viewBox="0 0 52 52" id="service--service7" xmlns="http://www.w3.org/2000/svg"><path d="M38.793 12.582a11.324 11.324 0 01-15.914 14.354v0l-9.942 11.52a4.26 4.26 0 01-6.025-6.026l11.519-9.942A11.324 11.324 0 0132.785 6.574L25.342 14l1.01 5.016 5.016 1.01 7.425-7.443z" stroke="#FBFBFB" stroke-width="2" stroke-linecap="round" stroke-linejoin="round"/><path d="M0 51.367h52" stroke="url(#avpaint0_linear_36_13468)"/><defs><linearGradient id="avpaint0_linear_36_13468" x1="0" y1="51.867" x2="52" y2="51.867" gradientUnits="userSpaceOnUse"><stop stop-color="#22BAFB"/><stop offset=".234" stop-color="#64EEB4"/><stop offset=".547" stop-color="#FFF5DD"/><stop offset=".654" stop-color="#C8F3F9"/><stop offset="1" stop-color="#184CD1"/></linearGradient></defs></svg><svg fill="none" viewBox="0 0 52 52" id="service--service8" xmlns="http://www.w3.org/2000/svg"><path d="M22.684 22.684h15.595M22.684 11.342h15.595M22.684 34.025h15.595M16.303 8.506l-6.15 5.671-3.065-2.835m9.215 8.506l-6.15 5.671-3.065-2.835m9.215 8.506l-6.15 5.67-3.065-2.835" stroke="#FBFBFB" stroke-width="2" stroke-linecap="round" stroke-linejoin="round"/><path d="M0 51.367h52" stroke="url(#awpaint0_linear_36_13523)"/><defs><linearGradient id="awpaint0_linear_36_13523" x1="0" y1="51.867" x2="52" y2="51.867" gradientUnits="userSpaceOnUse"><stop stop-color="#22BAFB"/><stop offset=".234" stop-color="#64EEB4"/><stop offset=".547" stop-color="#FFF5DD"/><stop offset=".654" stop-color="#C8F3F9"/><stop offset="1" stop-color="#184CD1"/></linearGradient></defs></svg><svg fill="none" viewBox="0 0 82 116" id="unique--img1" xmlns="http://www.w3.org/2000/svg"><path d="M54.994 1.04h-28.34c-14.099 0-25.506 25.365-25.506 56.68 0 31.316 11.407 56.68 25.506 56.68h28.34"/><path d="M54.994 1.04h-28.34c-14.099 0-25.506 25.365-25.506 56.68 0 31.316 11.407 56.68 25.506 56.68h28.34" stroke="#F5F7FA" stroke-width="2" stroke-linecap="round" stroke-linejoin="round"/><path d="M29.488 57.72c0 31.304 11.42 56.68 25.506 56.68 14.087 0 25.506-25.376 25.506-56.68 0-31.303-11.42-56.68-25.506-56.68S29.488 26.418 29.488 57.72zm2.125-22.67H3.273m28.34 45.343H3.497" stroke="#F5F7FA" stroke-width="2" stroke-linecap="round" stroke-linejoin="round"/><path d="M58.758 88.61l-.591-6.721c-2.23 1.477-4.376 2.51-6.438 3.098-2.032.525-3.886.475-5.561-.15l1.022-3.996c1.738.539 3.505.607 5.302.205 1.793-.443 3.9-1.513 6.322-3.21 2.986-2.094 5.162-4.39 6.527-6.89 1.362-2.54 1.938-5.001 1.728-7.383-.17-1.937-.853-3.087-2.047-3.45-1.161-.386-3.016-.05-5.565 1.009l-4.984 2.208c-3.054 1.326-5.389 1.613-7.005.86-1.587-.816-2.513-2.738-2.78-5.765-.198-2.26.072-4.592.811-6.996.74-2.404 1.86-4.69 3.36-6.855a26.187 26.187 0 015.509-5.854L53.776 32l2.688-1.884.596 6.78c1.674-1 3.394-1.67 5.16-2.01 1.8-.361 3.387-.145 4.76.65l-.928 3.864c-1.513-.782-3.116-.987-4.81-.614-1.696.332-3.54 1.196-5.53 2.592-2.655 1.86-4.724 4.168-6.208 6.922-1.45 2.731-2.06 5.408-1.83 8.032.182 2.058.842 3.353 1.98 3.883 1.136.49 2.84.238 5.112-.755l4.94-2.113c3.322-1.472 5.838-1.907 7.547-1.304 1.705.561 2.683 2.275 2.936 5.141.291 3.31-.437 6.648-2.183 10.015-1.747 3.368-4.133 6.282-7.157 8.745l.597 6.781-2.688 1.884z" fill="#F5F7FA"/></svg><svg fill="none" viewBox="0 0 157 197" id="unique--img2" xmlns="http://www.w3.org/2000/svg"><path d="M118.425 17.713L75.722 8.39C54.478 3.752 28.946 38.22 18.645 85.405c-10.301 47.186-1.457 89.158 19.787 93.795l42.703 9.323" fill="#202533"/><path d="M118.425 17.713L75.722 8.39C54.478 3.752 28.946 38.22 18.645 85.405c-10.301 47.186-1.457 89.158 19.787 93.795l42.703 9.323" stroke="#F5F7FA" stroke-width="2" stroke-linecap="round" stroke-linejoin="round"/><path d="M61.348 94.728c-10.297 47.168-1.438 89.162 19.788 93.795 21.225 4.634 46.779-29.847 57.077-77.015 10.297-47.168 1.438-89.161-19.788-93.795C97.2 13.08 71.645 47.56 61.348 94.728z" fill="#202533" stroke="#F5F7FA" stroke-width="2" stroke-linecap="round" stroke-linejoin="round"/><path d="M72.009 61.267l-42.703-9.323m27.787 77.647l-42.366-9.249" stroke="#F5F7FA" stroke-width="2" stroke-linecap="round" stroke-linejoin="round"/><path d="M95.175 151.812l1.32-10.321c-3.847 1.493-7.42 2.343-10.72 2.552-3.235.122-6.012-.564-8.331-2.058l2.855-5.683c2.441 1.383 5.082 2.067 7.921 2.052 2.847-.077 6.375-.996 10.583-2.758 5.188-2.171 9.222-4.916 12.101-8.233 2.887-3.38 4.565-6.898 5.032-10.556.381-2.975-.269-4.932-1.95-5.872-1.622-.963-4.528-1.067-8.717-.311l-8.236 1.688c-5.038.994-8.65.658-10.838-1.008-2.122-1.752-2.886-4.952-2.292-9.601.444-3.472 1.619-6.897 3.524-10.276 1.905-3.379 4.344-6.453 7.317-9.223a40.387 40.387 0 0110.226-7.01l1.319-10.32 4.67-1.955-1.332 10.414c2.851-.958 5.663-1.402 8.436-1.331 2.832.047 5.151.895 6.959 2.543l-2.669 5.518c-2.023-1.676-4.372-2.512-7.046-2.507-2.666-.057-5.728.638-9.187 2.086-4.612 1.93-8.488 4.726-11.63 8.388-3.084 3.638-4.883 7.472-5.399 11.501-.404 3.161.165 5.329 1.706 6.502 1.55 1.112 4.2 1.293 7.951.544l8.138-1.558c5.491-1.125 9.424-.953 11.801.516 2.384 1.408 3.295 4.312 2.733 8.713-.65 5.083-2.845 9.874-6.585 14.373-3.739 4.499-8.293 8.107-13.659 10.823l-1.332 10.414-4.67 1.954z" fill="#F5F7FA"/></svg><svg fill="none" viewBox="0 0 89 89" id="unique--info1" xmlns="http://www.w3.org/2000/svg"><path d="M5.526 35.916l38.678 22.102 38.678-22.102-38.678-22.102L5.526 35.916z" stroke="#FBFBFB" stroke-width="3" stroke-linecap="round" stroke-linejoin="round"/><path d="M5.526 49.73l38.678 22.102L82.882 49.73" stroke="#FBFBFB" stroke-width="3" stroke-linecap="round" stroke-linejoin="round"/></svg><svg fill="none" viewBox="0 0 89 89" id="unique--info2" xmlns="http://www.w3.org/2000/svg"><path d="M42.373 8.944l-27.869 5.56-5.56 27.87a2.763 2.763 0 00.76 2.486l36.054 36.054a2.729 2.729 0 003.902 0L80.914 49.66a2.729 2.729 0 000-3.902L44.86 9.704a2.762 2.762 0 00-2.487-.76v0z" stroke="#FBFBFB" stroke-width="3" stroke-linecap="round" stroke-linejoin="round"/><path d="M29.01 33.153a4.144 4.144 0 100-8.288 4.144 4.144 0 000 8.288z" fill="#FBFBFB"/></svg><svg fill="none" viewBox="0 0 89 89" id="unique--info3" xmlns="http://www.w3.org/2000/svg"><path d="M33.153 58.019c13.733 0 24.866-11.133 24.866-24.865 0-13.733-11.133-24.866-24.866-24.866-13.732 0-24.865 11.133-24.865 24.866 0 13.732 11.133 24.865 24.865 24.865z" stroke="#FBFBFB" stroke-width="3" stroke-linecap="round" stroke-linejoin="round"/><path d="M55.256 80.121c13.733 0 24.865-11.132 24.865-24.865 0-13.733-11.132-24.865-24.865-24.865-13.733 0-24.865 11.132-24.865 24.865 0 13.733 11.132 24.865 24.865 24.865zm-12.95-46.104l12.087 12.087m-20.375-3.798l12.087 12.087" stroke="#FBFBFB" stroke-width="3" stroke-linecap="round" stroke-linejoin="round"/></svg></svg>